<?xml version="1.0" encoding="UTF-8" standalone="no"?>
<!-- Created with Inkscape (http://www.inkscape.org/) -->

<svg
   width="210mm"
   height="297mm"
   viewBox="0 0 210 297"
   version="1.1"
   id="svg14512"
   inkscape:version="1.2.2 (b0a8486, 2022-12-01)"
   sodipodi:docname="supporting_map.svg"
   xmlns:inkscape="http://www.inkscape.org/namespaces/inkscape"
   xmlns:sodipodi="http://sodipodi.sourceforge.net/DTD/sodipodi-0.dtd"
   xmlns="http://www.w3.org/2000/svg"
   xmlns:svg="http://www.w3.org/2000/svg">
  <sodipodi:namedview
     id="namedview14514"
     pagecolor="#ffffff"
     bordercolor="#999999"
     borderopacity="1"
     inkscape:showpageshadow="0"
     inkscape:pageopacity="0"
     inkscape:pagecheckerboard="0"
     inkscape:deskcolor="#d1d1d1"
     inkscape:document-units="mm"
     showgrid="false"
     inkscape:zoom="0.51639414"
     inkscape:cx="370.84077"
     inkscape:cy="547.06275"
     inkscape:window-width="1440"
     inkscape:window-height="847"
     inkscape:window-x="0"
     inkscape:window-y="25"
     inkscape:window-maximized="1"
     inkscape:current-layer="g7851" />
  <defs
     id="defs14509" />
  <g
     inkscape:label="Layer 1"
     inkscape:groupmode="layer"
     id="layer1">
    <g
       id="g7654"
       transform="matrix(0.67603402,0,0,0.67603402,-184.72821,-70.599949)">
      <g
         id="g7836"
         transform="matrix(0.89349427,0,0,0.89349427,36.686714,19.434636)">
        <g
           id="g7825">
          <g
             id="g7851"
             transform="translate(0,3.7196858)">
            <g
               id="g6497"
               transform="matrix(0.82648423,0,0,0.63134451,121.31309,169.26903)">
              <path
                 style="display:inline;fill:none;fill-opacity:1;stroke:#b463ff;stroke-width:4.84002;stroke-dasharray:none;stroke-opacity:1"
                 d="m 265.26271,128.41209 c 0.1324,0.0993 0.29787,0.43026 0.39715,0.29787 0.0993,-0.1324 -0.55415,-0.3502 -0.39715,-0.29787 0.25313,0.0845 0.45636,0.27783 0.69502,0.39716 0.0888,0.0444 0.20367,-0.0314 0.29786,0 0.0444,0.0148 0.0575,0.0783 0.0993,0.0993 0.13167,0.0659 0.35556,-0.0469 0.49644,0 0.0702,0.0234 0.12606,0.0847 0.19858,0.0993 0.11257,0.0225 0.36725,-0.043 0.49645,0 0.0702,0.0233 0.12677,0.0815 0.19857,0.0993 0.0964,0.0241 0.20155,-0.0241 0.29787,0 0.10153,0.0253 0.19634,0.0739 0.29789,0.0993 0.0642,0.0159 0.13585,-0.0208 0.19857,0 0.0702,0.0233 0.12836,0.0759 0.19858,0.0993 0.0562,0.0187 0.25798,-0.0399 0.29785,0 0.0233,0.0233 -0.0296,0.0846 0,0.0993 0.0592,0.0297 0.13443,-0.0159 0.19861,0 0.47945,0.11985 -0.004,0.0471 0.29785,0.19858 0.0296,0.0148 0.0661,0 0.0993,0 0.0331,0.0331 0.0575,0.0783 0.0993,0.0993 0.0296,0.0148 0.0759,-0.0233 0.0993,0 0.0233,0.0233 -0.0233,0.0759 0,0.0993 0.0233,0.0233 0.0698,-0.0148 0.0993,0 0.0419,0.0208 0.0575,0.0783 0.0993,0.0993 0.0296,0.0148 0.0698,-0.0148 0.0993,0 0.13499,0.0674 0.26222,0.23039 0.39718,0.29787 0.0296,0.0148 0.0698,-0.0148 0.0993,0 0.41322,0.20661 -0.10617,-0.008 0.0993,0.19858 0.0233,0.0233 0.0698,-0.0148 0.0993,0 0.0419,0.0208 0.0604,0.0733 0.0993,0.0993 0.0616,0.041 0.14626,0.0469 0.1986,0.0993 0.0233,0.0235 -0.0185,0.0718 0,0.0993 0.0556,0.0834 0.29197,0.32703 0.39715,0.39716 0.0615,0.041 0.137,0.0582 0.19858,0.0993 0.15022,0.10015 0.25393,0.28974 0.39715,0.39715 0.0592,0.0443 0.14624,0.0469 0.19859,0.0993 0.0523,0.0523 0.0469,0.14626 0.0993,0.19858 0.0523,0.0523 0.13701,0.0582 0.19858,0.0993 0.10943,0.073 0.18056,0.23921 0.29787,0.29787 0.0296,0.0148 0.0759,-0.0234 0.0993,0 0.0523,0.0523 0.0469,0.14624 0.0993,0.19857 0.0235,0.0234 0.0698,-0.0148 0.0993,0 0.0837,0.0419 0.10981,0.16897 0.19859,0.19858 0.0629,0.0208 0.13931,-0.0297 0.19857,0 0.0297,0.0148 -0.0235,0.0759 0,0.0993 0.0233,0.0233 0.0698,-0.0148 0.0993,0 0.0419,0.0208 0.0575,0.0783 0.0993,0.0993 0.0776,0.0388 0.31967,0.0605 0.39717,0.0993 0.0837,0.0419 0.11483,0.15671 0.19857,0.19857 0.0297,0.0148 0.0663,0 0.0993,0 0.0993,0.0331 0.20426,0.0525 0.29787,0.0993 0.0419,0.0208 0.0575,0.0783 0.0993,0.0993 0.0592,0.0296 0.13945,-0.0296 0.19858,0 0.0419,0.0208 0.0663,0.0663 0.0993,0.0993 0.1324,0.0331 0.27045,0.0486 0.39715,0.0993 0.0435,0.0174 0.0604,0.0733 0.0993,0.0993 0.12311,0.0821 0.25357,0.16269 0.39718,0.19859 0.12836,0.0321 0.27155,-0.0419 0.39715,0 0.0444,0.0148 0.0575,0.0783 0.0993,0.0993 0.11031,0.0552 0.36977,0.0571 0.49643,0.0993 0.0702,0.0234 0.12678,0.0815 0.1986,0.0993 0.0964,0.0241 0.20367,-0.0314 0.29786,0 0.0702,0.0233 0.12836,0.0759 0.19858,0.0993 0.14892,0.0497 0.34751,-0.0497 0.49645,0 0.0444,0.0148 0.0548,0.0846 0.0993,0.0993 0.0627,0.0208 0.13585,-0.0208 0.19858,0 0.0444,0.0148 0.0538,0.0879 0.0993,0.0993 0.12851,0.0321 0.27158,-0.0419 0.39715,0 0.0702,0.0235 0.12836,0.0759 0.19859,0.0993 0.11646,0.0388 0.28782,-0.0546 0.39715,0 0.0296,0.0148 -0.0233,0.0759 0,0.0993 0.0689,0.0689 0.40249,-0.0235 0.49646,0 0.10153,0.0254 0.19524,0.0788 0.29787,0.0993 0.30029,0.0601 0.69432,0 0.99289,0 0.37736,0 1.03362,-0.0713 1.39005,0 0.17559,0.0351 0.70178,0.19521 0.89361,0.0993 0.0419,-0.0208 0.0575,-0.0783 0.0993,-0.0993 0.10679,-0.0533 0.28229,0.0383 0.39716,0 0.0702,-0.0233 0.1324,-0.0661 0.19858,-0.0993 0.0993,0 0.20155,0.0241 0.29787,0 0.0158,-0.004 0.27292,-0.1861 0.29785,-0.19858 0.27044,-0.13512 0.29063,-0.0307 0.49646,-0.0993 0.21063,-0.0701 0.39167,-0.21042 0.59574,-0.29787 0.0963,-0.0412 0.19633,-0.0739 0.29787,-0.0993 0.0321,-0.009 0.0698,0.0148 0.0993,0 0.45441,-0.22722 -0.42132,0.0412 0.29786,-0.19859 0.0627,-0.0208 0.13945,0.0296 0.19858,0 0.0419,-0.0208 0.0663,-0.0661 0.0993,-0.0993 0.0661,0 0.1357,0.0208 0.19857,0 0.0444,-0.0148 0.0538,-0.0879 0.0993,-0.0993 0.0964,-0.0241 0.20367,0.0314 0.29786,0 0.69682,-0.46455 -0.0113,-0.0714 0.49646,-0.19858 0.18349,-0.0458 0.36134,-0.23032 0.49644,-0.29787 0.0296,-0.0148 0.0671,0.009 0.0993,0 0.10153,-0.0254 0.20069,-0.0604 0.29786,-0.0993 0.19825,-0.0792 0.29372,-0.2303 0.49646,-0.29788 0.1191,-0.0398 0.27802,0.0398 0.39715,0 0.0702,-0.0233 0.12678,-0.0814 0.19859,-0.0993 0.0643,-0.0159 0.13571,0.0208 0.19858,0 0.0444,-0.0148 0.0575,-0.0783 0.0993,-0.0993 0.0296,-0.0148 0.0671,0.009 0.0993,0 0.0333,-0.009 0.68342,-0.19279 0.69502,-0.19857 0.0419,-0.0208 0.0575,-0.0783 0.0993,-0.0993 0.15941,-0.0797 0.32956,-0.13601 0.49644,-0.19858 0.098,-0.0368 0.21079,-0.0412 0.29787,-0.0993 0.0275,-0.0185 0,-0.0661 0,-0.0993 0.0663,-0.0331 0.12677,-0.0815 0.19859,-0.0993 0.0643,-0.0159 0.13441,0.0159 0.19858,0 0.21538,-0.0538 0.3896,-0.2154 0.59574,-0.29787 0.11395,-0.0456 0.28321,-0.0537 0.39715,-0.0993 0.20614,-0.0824 0.38511,-0.22765 0.59574,-0.29785 0.29556,-0.0985 -0.20373,0.23509 0.29787,-0.0993 0.0389,-0.026 0.0575,-0.0783 0.0993,-0.0993 0.15941,-0.0797 0.32508,-0.14961 0.49643,-0.19858 0.0636,-0.0182 0.13946,0.0298 0.19861,0 0.0296,-0.0148 -0.0275,-0.0809 0,-0.0993 0.21723,-0.14483 0.38515,-0.0582 0.59572,-0.19857 0.4189,-0.27927 -0.53938,0.1704 0.39717,-0.29786 0.0296,-0.0148 0.0698,0.0148 0.0993,0 0.4544,-0.22723 -0.42132,0.0412 0.29786,-0.19859 0.29557,-0.0985 -0.20371,0.2351 0.29787,-0.0993 0.22721,-0.15146 -0.0621,-0.0787 0.29788,-0.19857 0.0314,-0.01 0.0698,0.0148 0.0993,0 0.1068,-0.0533 0.18707,-0.15427 0.29786,-0.19858 0.0615,-0.0246 0.13715,0.0246 0.19857,0 0.11082,-0.0444 0.19115,-0.14521 0.29787,-0.19858 0.95893,-0.47946 -0.18515,0.12794 0.49646,-0.0993 0.0443,-0.0148 0.0575,-0.0783 0.0993,-0.0993 0.0936,-0.0468 0.20425,-0.0525 0.29786,-0.0993 0.0419,-0.0208 0.0548,-0.0845 0.0993,-0.0993 0.0627,-0.0208 0.13239,0 0.19857,0 0.0993,-0.0661 0.18706,-0.15426 0.29786,-0.19858 0.0615,-0.0246 0.13572,0.0208 0.19858,0 0.0444,-0.0148 0.0575,-0.0783 0.0993,-0.0993 0.0936,-0.0468 0.20427,-0.0525 0.29788,-0.0993 0.0419,-0.0208 0.0575,-0.0783 0.0993,-0.0993 0.0296,-0.0148 0.0661,0 0.0993,0 0.0993,-0.0331 0.20426,-0.0524 0.29787,-0.0993 0.0419,-0.0208 0.0663,-0.0663 0.0993,-0.0993 0.0663,-0.0331 0.1298,-0.0719 0.19858,-0.0993 0.0993,-0.0331 0.19859,-0.0663 0.29788,-0.0993 0.0663,0 0.13585,0.0208 0.19858,0 0.0368,-0.0113 0.26117,-0.18635 0.29785,-0.19858 0.0627,-0.0208 0.13932,0.0297 0.1986,0 0.1191,-0.0595 0.17871,-0.23829 0.29786,-0.29787 0.0592,-0.0296 0.13585,0.0208 0.19858,0 0.0929,-0.031 0.30053,-0.24955 0.39715,-0.29786 0.0297,-0.0148 0.0718,0.0183 0.0993,0 0.0779,-0.052 0.12374,-0.14247 0.19858,-0.19858 0.0592,-0.0444 0.14624,-0.0469 0.19857,-0.0993 0.0233,-0.0234 -0.0235,-0.0759 0,-0.0993 0.0233,-0.0233 0.0718,0.0183 0.0993,0 0.0779,-0.0518 0.12073,-0.14663 0.19858,-0.19858 0.0275,-0.0183 0.0698,0.0148 0.0993,0 0.0419,-0.0208 0.0604,-0.0733 0.0993,-0.0993 0.0616,-0.041 0.137,-0.0582 0.19857,-0.0993 0.0779,-0.052 0.11483,-0.15672 0.19859,-0.19857 0.0297,-0.0148 0.0698,0.0148 0.0993,0 0.0419,-0.0208 0.0575,-0.0783 0.0993,-0.0993 0.0296,-0.0148 0.0679,0.01 0.0993,0 0.14046,-0.0468 0.25675,-0.15178 0.39715,-0.19858 0.0837,-0.028 0.21946,0.0392 0.29787,0 0.0419,-0.0208 0.0663,-0.0661 0.0993,-0.0993 0.0993,0 0.20154,0.0241 0.29786,0 0.0454,-0.0113 0.0538,-0.0878 0.0993,-0.0993 0.0964,-0.0241 0.20155,0.0241 0.29789,0 0.0454,-0.0113 0.0538,-0.0878 0.0993,-0.0993 0.0964,-0.0241 0.19993,0.0163 0.29787,0 0.10328,-0.0172 0.19523,-0.0788 0.29785,-0.0993 0.065,-0.0129 0.1324,0 0.19859,0 0.0993,0 0.2005,0.0195 0.29787,0 0.0727,-0.0146 0.12605,-0.0847 0.19858,-0.0993 0.0974,-0.0195 0.20155,0.0241 0.29787,0 0.0454,-0.0113 0.0548,-0.0846 0.0993,-0.0993 0.0942,-0.0314 0.20367,0.0314 0.29787,0 0.38667,-0.12894 0.009,-0.0993 0.39715,-0.0993 0.22433,0 -0.0443,0.0148 0.29787,-0.0993 0.0314,-0.01 0.0698,0.0148 0.0993,0 0.0419,-0.0208 0.0548,-0.0845 0.0993,-0.0993 0.0942,-0.0314 0.20907,0.0444 0.29788,0 0.0419,-0.0208 0.0575,-0.0783 0.0993,-0.0993 0.0297,-0.0148 0.0663,0 0.0993,0 0.0661,0 0.13932,0.0297 0.19858,0 0.0297,-0.0148 -0.0295,-0.0845 0,-0.0993 0.26235,-0.13109 0.46877,0.11308 0.0993,0.29787 -0.0297,0.0148 -0.0233,-0.0759 0,-0.0993 0.0233,-0.0233 0.0759,0.0234 0.0993,0 0.1285,-0.12851 -0.21853,-0.1986 0.19859,-0.1986 0.25614,-0.5336 0.67853,0.006 0.99463,-0.0996 0.0444,-0.0148 0.0575,-0.0784 0.0993,-0.0993 0.0592,-0.0297 0.13572,0.0208 0.19858,0 0.61631,-0.20544 -0.32998,0.009 0.49646,-0.19858 0.12462,-0.0311 0.27256,0.0311 0.39715,0 0.0454,-0.0113 0.0575,-0.0783 0.0993,-0.0993 0.0592,-0.0296 0.15178,0.0468 0.19858,0 0.0233,-0.0233 -0.0295,-0.0846 0,-0.0993 0.0592,-0.0297 0.13585,0.0208 0.1986,0 0.0443,-0.0148 0.0604,-0.0733 0.0993,-0.0993 0.12311,-0.0821 0.25673,-0.15179 0.39715,-0.19858 0.0314,-0.01 0.0698,0.0148 0.0993,0 0.0419,-0.0208 0.0548,-0.0845 0.0993,-0.0993 0.19583,-0.0653 0.49414,0.0334 0.69504,0 0.10328,-0.0172 0.19857,-0.0661 0.29785,-0.0993 0.1655,0 0.33156,0.0144 0.49646,0 0.55892,-0.0466 0.64598,-0.087 1.09219,-0.19858 0.28033,-0.0701 0.61325,0.07 0.8936,0 0.10153,-0.0254 0.19425,-0.0846 0.29786,-0.0993 0.4436,-0.0634 0.94092,0 1.39005,0 0.16549,0 0.33264,-0.0233 0.49645,0 0.0732,0.01 0.13239,0.0663 0.19858,0.0993 0.29786,0 0.59574,0 0.89361,0 0.0331,0 0.0698,0.0148 0.0993,0 0.0419,-0.0208 0.0575,-0.0783 0.0993,-0.0993 0.0592,-0.0297 0.15178,0.0468 0.19857,0 0.0235,-0.0233 -0.0233,-0.0759 0,-0.0993 0.0235,-0.0233 0.0698,0.0148 0.0993,0 0.0419,-0.0208 0.0575,-0.0783 0.0993,-0.0993 0.0592,-0.0297 0.13931,0.0296 0.19858,0 0.13512,-0.0675 0.31293,-0.252 0.49643,-0.29788 0.0643,-0.0159 0.13585,0.0208 0.19859,0 0.0444,-0.0148 0.0548,-0.0845 0.0993,-0.0993 0.0628,-0.0208 0.13571,0.0208 0.19858,0 0.0444,-0.0148 0.0663,-0.0661 0.0993,-0.0993 0.0663,0 0.1344,0.0162 0.19857,0 0.47947,-0.11985 -0.004,-0.0471 0.29786,-0.19857 0.0965,-0.0483 0.30068,-0.051 0.39716,-0.0993 0.12563,-0.0627 0.18103,-0.21998 0.29787,-0.29786 0.055,-0.0368 0.15177,0.0468 0.19858,0 0.0523,-0.0523 0.0469,-0.14626 0.0993,-0.19859 0.0523,-0.0523 0.137,-0.0582 0.19859,-0.0993 0.11458,-0.0763 0.18331,-0.22148 0.29787,-0.29786 0.0615,-0.041 0.14625,-0.0469 0.19857,-0.0993 0.0234,-0.0234 -0.0297,-0.0846 0,-0.0993 0.0592,-0.0296 0.13931,0.0296 0.19858,0 0.0297,-0.0148 -0.0233,-0.0759 0,-0.0993 0.0523,-0.0523 0.13701,-0.0582 0.19859,-0.0993 0.11684,-0.0779 0.18822,-0.21016 0.29787,-0.29788 0.11006,-0.18788 0.34575,-0.17731 0.49643,-0.29786 0.1571,-0.12563 0.31719,-0.37692 0.49646,-0.49645 0.0615,-0.041 0.14624,-0.0469 0.19858,-0.0993 0.0235,-0.0233 0,-0.0661 0,-0.0993 0.0663,-0.0661 0.12072,-0.14664 0.19857,-0.19857 0.0275,-0.0183 0.0679,0.01 0.0993,0 0.0701,-0.0233 0.13701,-0.0582 0.19859,-0.0993 0.13514,-0.09 0.21873,-0.33782 0.29787,-0.39715 0.0319,-0.024 0.64593,-0.27334 0.69502,-0.29789 0.12136,-0.0606 0.28349,-0.21262 0.39715,-0.29785 0.0993,-0.0663 0.19858,-0.1324 0.29787,-0.19858 0.0331,0 0.0698,0.0148 0.0993,0 0.13081,-0.0654 0.26637,-0.23249 0.39717,-0.29787 0.0297,-0.0148 0.0698,0.0148 0.0993,0 0.11721,-0.0586 0.18832,-0.22486 0.29785,-0.29788 0.0615,-0.041 0.14626,-0.0469 0.19858,-0.0993 0.0233,-0.0233 -0.0233,-0.0759 0,-0.0993 0.0523,-0.0523 0.1393,-0.0548 0.19859,-0.0993 0.17168,-0.1288 0.30467,-0.40057 0.49644,-0.49646 0.0295,-0.0148 0.0698,0.0148 0.0993,0 0.17807,-0.089 0.17687,-0.27613 0.29786,-0.39715 0.15549,-0.15549 0.31501,-0.37549 0.49646,-0.49645 0.0275,-0.0183 0.0661,0 0.0993,0 0.0663,-0.0663 0.14234,-0.12374 0.19857,-0.19859 0.0444,-0.0592 0.0469,-0.14623 0.0993,-0.19857 0.26556,-0.26554 0.29993,-0.10241 0.49645,-0.39715 0.0183,-0.0275 -0.0233,-0.0759 0,-0.0993 0.0233,-0.0233 0.0698,0.0148 0.0993,0 0.13974,-0.0699 0.2804,-0.30959 0.39716,-0.39717 0.0592,-0.0444 0.14625,-0.0469 0.19859,-0.0993 0.0233,-0.0233 -0.0233,-0.0759 0,-0.0993 0.0233,-0.0234 0.0759,0.0233 0.0993,0 0.0523,-0.0523 0.0469,-0.14625 0.0993,-0.19858 0.3875,-0.3875 0.0533,0.0231 0.29787,-0.0993 0.13499,-0.0674 0.2622,-0.2304 0.39715,-0.29787 0.0295,-0.0148 0.0698,0.0148 0.0993,0 0.0419,-0.021 0.0575,-0.0784 0.0993,-0.0993 0.0295,-0.0148 0.0661,0 0.0993,0 0.0661,-0.0331 0.13701,-0.0582 0.19858,-0.0993 0.0389,-0.026 0.0575,-0.0783 0.0993,-0.0993 0.0295,-0.0148 0.0697,0.0148 0.0993,0 0.0419,-0.0208 0.0575,-0.0783 0.0993,-0.0993 0.0592,-0.0297 0.15177,0.0468 0.19858,0 0.0233,-0.0233 -0.0233,-0.0759 0,-0.0993 0.0468,-0.0468 0.15178,0.0468 0.19859,0 0.0233,-0.0233 -0.0233,-0.0759 0,-0.0993 0.0233,-0.0235 0.0698,0.0148 0.0993,0 0.0419,-0.0208 0.0575,-0.0783 0.0993,-0.0993 0.0295,-0.0148 0.0698,0.0148 0.0993,0 0.0419,-0.0208 0.0575,-0.0783 0.0993,-0.0993 0.0298,-0.0148 0.0698,0.0148 0.0993,0 0.0419,-0.0208 0.0575,-0.0783 0.0993,-0.0993 0.0298,-0.0148 0.0759,0.0233 0.0993,0 0.0235,-0.0233 -0.0233,-0.0759 0,-0.0993 0.0468,-0.0468 0.15178,0.0468 0.19859,0 0.0233,-0.0233 -0.0235,-0.0759 0,-0.0993 0.0468,-0.0468 0.15176,0.0468 0.19858,0 0.0233,-0.0233 -0.0233,-0.0759 0,-0.0993 0.0233,-0.0233 0.0698,0.0148 0.0993,0 0.0419,-0.0208 0.0575,-0.0783 0.0993,-0.0993 0.0592,-0.0296 0.15178,0.0468 0.19858,0 0.0233,-0.0233 -0.0233,-0.0759 0,-0.0993 0.0468,-0.0468 0.13932,0.0296 0.19858,0 0.0419,-0.0208 0.0548,-0.0846 0.0993,-0.0993 0.0627,-0.0208 0.13442,0.0159 0.1986,0 0.0718,-0.0181 0.12836,-0.0759 0.19857,-0.0993 0.0628,-0.0208 0.1357,0.0208 0.19858,0 0.0701,-0.0233 0.12676,-0.0814 0.19857,-0.0993 0.0643,-0.0162 0.13571,0.0208 0.19858,0 0.0444,-0.0148 0.0575,-0.0783 0.0993,-0.0993 0.10592,-0.053 0.29123,0.0528 0.39715,0 0.0419,-0.0208 0.0575,-0.0783 0.0993,-0.0993 0.0483,-0.0241 0.99643,-0.024 1.09219,0 0.27737,0.0693 0.52804,0.2091 0.79431,0.29785 0.12952,0.0431 0.2677,0.0562 0.39715,0.0993 0.0702,0.0233 0.12678,0.0815 0.19859,0.0993 0.0643,0.0159 0.13585,-0.0208 0.19858,0 0.0444,0.0148 0.0575,0.0783 0.0993,0.0993 0.0297,0.0148 0.0759,-0.0233 0.0993,0 0.0233,0.0233 -0.0275,0.081 0,0.0993 0.087,0.0581 0.20068,0.0604 0.29785,0.0993 0.0688,0.0275 0.12836,0.0759 0.19858,0.0993 0.0314,0.01 0.0698,-0.0148 0.0993,0 0.0419,0.0208 0.0575,0.0783 0.0993,0.0993 0.24454,0.12236 -0.0896,-0.28822 0.29786,0.0993 0.0233,0.0233 0,0.0661 0,0.0993 0.0331,0.0331 0.0634,0.0693 0.0993,0.0993 0.16549,0.1324 0.33097,0.26477 0.49645,0.39715 0.0331,0 0.0718,-0.0183 0.0993,0 0.18267,0.12173 0.3005,0.39848 0.49645,0.49646 0.0295,0.0148 0.0698,-0.0148 0.0993,0 0.0419,0.0208 0.0575,0.0784 0.0993,0.0993 0.0295,0.0148 0.0698,-0.0148 0.0993,0 0.0837,0.0419 0.11483,0.1567 0.1986,0.19857 0.0295,0.0148 0.0759,-0.0233 0.0993,0 0.0233,0.0233 -0.0235,0.0759 0,0.0993 0.0468,0.0468 0.1393,-0.0296 0.19857,0 0.0419,0.0208 0.0604,0.0733 0.0993,0.0993 0.0405,0.027 0.44965,0.18687 0.49646,0.19858 0.0643,0.0162 0.1357,-0.0208 0.19858,0 0.0443,0.0148 0.0575,0.0783 0.0993,0.0993 0.0592,0.0295 0.1393,-0.0297 0.19857,0 0.24539,0.12274 -0.0343,0.0993 0.19858,0.0993 0.0606,0 0.35847,-0.0388 0.39716,0 0.0233,0.0233 -0.0233,0.0759 0,0.0993 0.0233,0.0234 0.0679,-0.01 0.0993,0 0.0701,0.0234 0.12678,0.0815 0.19858,0.0993 0.0838,0.0208 0.31035,-0.0433 0.39715,0 0.0419,0.0208 0.0575,0.0783 0.0993,0.0993 0.0592,0.0296 0.13584,-0.0208 0.19859,0 0.0701,0.0233 0.12676,0.0814 0.19857,0.0993 0.0643,0.0159 0.13368,-0.0129 0.19858,0 0.10253,0.0206 0.19522,0.0788 0.29786,0.0993 0.065,0.0129 0.13585,-0.0208 0.19858,0 0.0444,0.0148 0.0549,0.0846 0.0993,0.0993 0.20566,0.0685 1.05088,0 1.29075,0 0.29664,0 1.04202,0.0622 1.29077,0 0.10152,-0.0254 0.19634,-0.0739 0.29788,-0.0993 0.18541,-0.0464 0.41623,0.0597 0.59573,0 0.0702,-0.0233 0.12836,-0.0759 0.19857,-0.0993 0.1486,-0.0496 0.34419,0.038 0.49646,0 0.0718,-0.0181 0.12836,-0.0759 0.19858,-0.0993 0.0627,-0.0208 0.1357,0.0208 0.19857,0 0.0702,-0.0233 0.12836,-0.0759 0.19858,-0.0993 0.0562,-0.0187 0.258,0.0399 0.29787,0 0.0233,-0.0233 -0.0235,-0.0759 0,-0.0993 0.0418,-0.0418 0.36079,0.0182 0.39715,0 0.0297,-0.0148 -0.0233,-0.0759 0,-0.0993 0.0468,-0.0468 0.1324,0 0.19858,0 0.23867,0 -0.0419,0.01 0.39716,-0.0993 0.053,-0.0129 0.26146,0.0364 0.29787,0 0.0233,-0.0233 -0.0297,-0.0846 0,-0.0993 0.0363,-0.0182 0.35539,0.0418 0.39715,0 0.13239,-0.13241 -0.16547,-0.0993 0.0993,-0.0993 0.0409,0 0.27158,0.0264 0.29787,0 0.0233,-0.0233 -0.0235,-0.0759 0,-0.0993 0.0468,-0.0468 0.13931,0.0297 0.19858,0 0.0419,-0.0208 0.0548,-0.0845 0.0993,-0.0993 0.0628,-0.0208 0.1357,0.0208 0.19857,0 0.0654,-0.0217 0.19859,-0.28535 0.19859,-0.0993 0,0.0468 -0.0783,0.0575 -0.0993,0.0993 -0.0148,0.0297 0.01,0.0679 0,0.0993 -0.0233,0.0701 -0.0759,0.12836 -0.0993,0.19857 -0.0208,0.0628 0.0296,0.13946 0,0.19859 -0.0208,0.0419 -0.0784,0.0575 -0.0993,0.0993 -0.0392,0.0783 0.028,0.21414 0,0.29787 -0.28126,0.56255 0.037,-0.14801 -0.0993,0.39715 -0.0181,0.0718 -0.0814,0.12678 -0.0993,0.19859 -0.0611,0.24452 0.0796,0.55593 0,0.7943 -0.0148,0.0444 -0.0846,0.0549 -0.0993,0.0993 -0.0628,0.18831 0,2.08621 0,2.28366 0,0.66193 0,1.32387 0,1.9858 0,0.27376 -0.0661,0.62903 0,0.89361 0.0181,0.0718 0.0759,0.12836 0.0993,0.19857 0.0335,0.10053 -0.0709,0.42557 0,0.49644 0.0233,0.0233 0.0759,-0.0234 0.0993,0 0.0468,0.0468 -0.0468,0.15179 0,0.19858 0.0233,0.0234 0.0846,-0.0296 0.0993,0 0.0298,0.0592 -0.0208,0.13586 0,0.19858 0.0148,0.0444 0.0733,0.0604 0.0993,0.0993 0.21876,0.0499 0.0525,0.20426 0.0993,0.29787 0.0596,0.1191 0.2383,0.17872 0.29789,0.29788 0,0.26477 -0.0331,-0.0331 0.0993,0.0993 0.0233,0.0233 -0.0235,0.0759 0,0.0993 0.0233,0.0233 0.0759,-0.0233 0.0993,0 0,0.26478 -0.0331,-0.0331 0.0993,0.0993 0.0235,0.0233 -0.0233,0.0759 0,0.0993 0.10479,0.10454 0.25676,0.15176 0.39715,0.19857 0.0314,0.01 0.0698,-0.0148 0.0993,0 0.0418,0.0208 0.0575,0.0783 0.0993,0.0993 0.0592,0.0296 0.13931,-0.0297 0.19858,0 0.0419,0.0208 0.0575,0.0783 0.0993,0.0993 0.18533,0.0926 0.50967,-0.0926 0.69503,0 0.0419,0.0208 0.0575,0.0783 0.0993,0.0993 0.0802,0.0402 0.51546,0.0402 0.59573,0 0.0419,-0.0208 0.0575,-0.0784 0.0993,-0.0993 0.13239,-0.0661 0.36406,0.0663 0.49646,0 0.0419,-0.0208 0.0575,-0.0783 0.0993,-0.0993 0.13441,-0.0671 0.35204,0.0481 0.49646,0 0.0701,-0.0233 0.12676,-0.0815 0.19857,-0.0993 0.16601,-0.0415 0.44488,0.0756 0.59573,0 0.0419,-0.0208 0.0575,-0.0783 0.0993,-0.0993 0.0297,-0.0148 0.0685,0.0129 0.0993,0 0.13743,-0.0551 0.25673,-0.15177 0.39715,-0.19858 0.0628,-0.0208 0.13714,0.0246 0.19857,0 0.11082,-0.0443 0.18709,-0.15426 0.29788,-0.19858 0.0615,-0.0246 0.13585,0.0208 0.19858,0 0.0443,-0.0148 0.0575,-0.0783 0.0993,-0.0993 0.24455,-0.12236 -0.0896,0.28822 0.29787,-0.0993 0.0233,-0.0233 -0.0265,-0.0794 0,-0.0993 0.11847,-0.0887 0.26864,-0.12525 0.39715,-0.19858 0.15161,-0.0866 0.5721,-0.37352 0.69503,-0.49645 0.0235,-0.0233 -0.0233,-0.0759 0,-0.0993 0.0235,-0.0233 0.0698,0.0148 0.0993,0 0.0837,-0.0419 0.11483,-0.15672 0.19857,-0.19858 0.0295,-0.0148 0.0698,0.0148 0.0993,0 0.0419,-0.0208 0.0604,-0.0733 0.0993,-0.0993 0.12324,-0.0821 0.25673,-0.15178 0.39715,-0.19858 0.0627,-0.0208 0.15177,0.0468 0.19858,0 0.0235,-0.0233 -0.0233,-0.0759 0,-0.0993 0.0459,-0.0459 0.23792,0.03 0.29788,0 0.0419,-0.0208 0.0557,-0.0818 0.0993,-0.0993 0.21158,-0.0847 0.79118,-0.16496 0.99289,-0.19857 0.0328,-0.006 0.0698,0.0148 0.0993,0 0.0419,-0.0208 0.0548,-0.0846 0.0993,-0.0993 0.0954,-0.0319 0.30186,0.0477 0.39716,0 0.0419,-0.0208 0.0535,-0.0902 0.0993,-0.0993 0.12981,-0.026 0.26657,0.0217 0.39717,0 0.073,-0.0113 0.12836,-0.0759 0.19857,-0.0993 0.26434,-0.0882 0.61963,0.0547 0.89361,0 0.10254,-0.0205 0.19633,-0.0739 0.29786,-0.0993 0.0824,-0.0206 0.22265,0.0376 0.29787,0 0.0419,-0.0208 0.0575,-0.0783 0.0993,-0.0993 0.0292,-0.0146 0.56801,-0.0358 0.69501,-0.0993 0.45442,-0.2272 -0.42132,0.0412 0.29788,-0.19857 0.0314,-0.01 0.0698,0.0148 0.0993,0 0.0419,-0.0208 0.0575,-0.0783 0.0993,-0.0993 0.0592,-0.0297 0.15177,0.0468 0.19858,0 0.0523,-0.0523 0.0582,-0.13701 0.0993,-0.19858 0.0468,-0.0702 0.41089,-0.24084 0.49644,-0.29788 0.1967,0.01 0.0469,-0.14624 0.0993,-0.19858 0.0233,-0.0233 0.0759,0.0234 0.0993,0 0.0233,-0.0233 -0.0233,-0.0759 0,-0.0993 0.0233,-0.0233 0.0698,0.0148 0.0993,0 0.41322,-0.20662 -0.10617,0.008 0.0993,-0.19857 0.0233,-0.0233 0.0698,0.0148 0.0993,0 0.0837,-0.0419 0.15672,-0.11483 0.19857,-0.19858 0.0148,-0.0297 -0.0233,-0.0759 0,-0.0993 0.0233,-0.0233 0.0718,0.0183 0.0993,0 0.11684,-0.0779 0.17229,-0.23506 0.29787,-0.29786 0.0295,-0.0148 0.0698,0.0148 0.0993,0 0.0419,-0.0208 0.0575,-0.0783 0.0993,-0.0993 0.0296,-0.0148 0.0759,0.0233 0.0993,0 0.0233,-0.0234 -0.0235,-0.0759 0,-0.0993 0.0468,-0.0468 0.15177,0.0468 0.19858,0 0.0235,-0.0233 -0.0233,-0.0759 0,-0.0993 0.0235,-0.0233 0.0679,0.01 0.0993,0 0.7192,-0.23973 -0.15654,0.0286 0.29788,-0.19858 0.0592,-0.0296 0.13585,0.0208 0.19858,0 0.0702,-0.0233 0.12835,-0.0759 0.19857,-0.0993 0.0314,-0.01 0.0679,0.01 0.0993,0 0.16548,-0.0663 0.33098,-0.13239 0.49646,-0.19859 0.0331,-0.0331 0.0575,-0.0783 0.0993,-0.0993 0.0295,-0.0148 0.0698,0.0148 0.0993,0 0.0419,-0.0209 0.0548,-0.0845 0.0993,-0.0993 0.0628,-0.0208 0.1324,0 0.19857,0 0.0663,-0.0331 0.12836,-0.0759 0.19858,-0.0993 0.211,-0.0703 0.56995,0 0.79433,0 0.25619,0 0.7916,-0.0672 0.99289,0 0.0702,0.0233 0.12836,0.0759 0.19858,0.0993 0.0627,0.0208 0.13945,-0.0296 0.19857,0 0.0419,0.0208 0.0575,0.0783 0.0993,0.0993 0.0887,0.0443 0.20366,-0.0314 0.29787,0 0.0443,0.0148 0.0575,0.0783 0.0993,0.0993 0.0592,0.0297 0.13585,-0.0208 0.19858,0 0.71919,0.23974 -0.15654,-0.0286 0.29785,0.19859 0.0592,0.0295 0.15179,-0.0468 0.1986,0 0.0233,0.0233 -0.0233,0.0759 0,0.0993 0.0468,0.0468 0.13584,-0.0208 0.19858,0 0.0702,0.0233 0.12836,0.0759 0.19858,0.0993 0.0314,0.01 0.0698,-0.0148 0.0993,0 0.0419,0.021 0.0661,0.0661 0.0993,0.0993 0.0663,0 0.13571,-0.0208 0.19858,0 0.0444,0.0148 0.0548,0.0846 0.0993,0.0993 0.0627,0.0208 0.13571,-0.0208 0.19858,0 0.0444,0.0148 0.0575,0.0783 0.0993,0.0993 0.0936,0.0468 0.20427,0.0525 0.29787,0.0993 0.0419,0.0208 0.0575,0.0783 0.0993,0.0993 0.0295,0.0148 0.0663,0 0.0993,0 0.1324,0.0661 0.27402,0.11646 0.39718,0.19857 0.0779,0.052 0.12374,0.14248 0.19858,0.19859 0.0592,0.0443 0.12836,0.0759 0.19857,0.0993 0.0314,0.01 0.0759,-0.0233 0.0993,0 0.0233,0.0233 -0.0233,0.0759 0,0.0993 0.0233,0.0233 0.0698,-0.0148 0.0993,0 0.0419,0.021 0.0575,0.0784 0.0993,0.0993 0.0297,0.0148 0.0698,-0.0148 0.0993,0 0.0419,0.0208 0.0575,0.0783 0.0993,0.0993 0.10592,0.053 0.0926,-0.053 0.19857,0 0.0419,0.0208 0.0575,0.0783 0.0993,0.0993 0.0586,0.0292 0.23113,0 0.29786,0 0.68961,-0.12324 1.10887,-0.60359 1.69114,-0.89472 0.0661,-0.0331 0.12836,-0.0759 0.19858,-0.0993 0.0314,-0.01 0.0698,0.0148 0.0993,0 0.0419,-0.0208 0.0575,-0.0783 0.0993,-0.0993 0.0295,-0.0148 0.0759,0.0233 0.0993,0 0.0235,-0.0233 -0.0148,-0.0698 0,-0.0993 0.0958,-0.19154 0.16806,-0.0344 0.29789,-0.0993 0.22598,-0.22601 -0.0206,-0.0262 0.19857,-0.0993 0.34467,-0.11496 0.0525,-0.18298 0.39715,-0.29789 0.0314,-0.01 0.0661,0 0.0993,0 0.0663,-0.0661 0.12073,-0.14664 0.19859,-0.19857 0.0275,-0.0183 0.0698,0.0148 0.0993,0 0.0837,-0.0419 0.10981,-0.16897 0.19858,-0.19858 0.0627,-0.0208 0.13931,0.0296 0.19857,0 0.0295,-0.0148 -0.0148,-0.0698 0,-0.0993 0.0208,-0.0419 0.0575,-0.0783 0.0993,-0.0993 0.0297,-0.0148 0.0663,0 0.0993,0 0.0993,-0.0331 0.21079,-0.0412 0.29787,-0.0993 0.0275,-0.0183 -0.0233,-0.0759 0,-0.0993 0.0523,-0.0523 0.12836,-0.0759 0.19858,-0.0993 0.0314,-0.01 0.0759,0.0233 0.0993,0 0.0233,-0.0233 -0.0233,-0.0759 0,-0.0993 0.0233,-0.0233 0.0698,0.0148 0.0993,0 0.11571,-0.0577 0.18222,-0.14076 0.29786,-0.19858 0.0592,-0.0296 0.15179,0.0468 0.19859,0 0.0233,-0.0233 -0.0235,-0.0759 0,-0.0993 0.0702,-0.0701 0.20367,0.0314 0.29787,0 0.0444,-0.0148 0.0548,-0.0846 0.0993,-0.0993 0.0627,-0.0208 0.13441,0.0159 0.19858,0 0.0718,-0.0181 0.12836,-0.0759 0.19857,-0.0993 0.11257,-0.0374 0.29195,0.0526 0.39717,0 0.0419,-0.0208 0.0548,-0.0846 0.0993,-0.0993 0.1846,-0.0615 1.07947,0 1.29075,0 0.15539,0 0.68676,-0.0537 0.79432,0 0.0837,0.0419 0.12073,0.14666 0.19858,0.19858 0.0663,0.0331 0.13239,0.0663 0.19858,0.0993 0.0331,0 0.0698,-0.0148 0.0993,0 0.0812,0.0407 0.35704,0.6739 0.39717,0.79432 0.0208,0.0627 -0.0159,0.1344 0,0.19857 0.0331,0.1324 0.0562,0.2677 0.0993,0.39717 0.0233,0.0701 0.0814,0.12677 0.0993,0.19857 0.0159,0.0643 0,0.1324 0,0.19858 0.0331,0.0663 0.0759,0.12836 0.0993,0.19857 0.01,0.0314 -0.0148,0.0698 0,0.0993 0.0208,0.0419 0.0783,0.0575 0.0993,0.0993 0.0148,0.0297 -0.01,0.0679 0,0.0993 0.0233,0.0701 0.0814,0.12678 0.0993,0.19859 0.0241,0.0964 -0.0314,0.20368 0,0.29787 0.0233,0.0701 0.0759,0.12836 0.0993,0.19858 0.0496,0.14853 0.0497,0.34789 0.0993,0.49644 0.0602,0.18078 0.13831,0.31567 0.19858,0.49645 0.0208,0.0628 -0.0208,0.13585 0,0.19857 0.0668,0.2 0.25666,0.38965 0.29787,0.59574 0.0194,0.0974 -0.0241,0.20155 0,0.29787 0.0113,0.0454 0.0784,0.0575 0.0993,0.0993 0.0772,0.15439 0.0221,0.44136 0.0993,0.59574 0.0208,0.0419 0.0783,0.0575 0.0993,0.0993 0.0148,0.0298 -0.01,0.0679 0,0.0993 0.0233,0.0702 0.0759,0.12836 0.0993,0.19858 0.0374,0.11257 -0.0526,0.29193 0,0.39716 0.0208,0.0419 0.0846,0.0548 0.0993,0.0993 0.0208,0.0628 0,0.13239 0,0.19858 0.0331,0.13239 0.0562,0.2677 0.0993,0.39715 0.0602,0.18078 0.1383,0.31566 0.19858,0.49646 0.10128,0.30377 -0.33068,-0.2478 0.0993,0.39715 0.0183,0.0275 0.0759,-0.0233 0.0993,0 0.0113,0.0113 0.0814,0.34335 0.0993,0.39716 0.0733,0.22004 0.16823,0.50058 0.29786,0.69501 0.0518,0.0779 0.16899,0.10981 0.1986,0.1986 0.0208,0.0627 -0.0208,0.13586 0,0.19858 0.0148,0.0443 0.0733,0.0604 0.0993,0.0993 0.20938,0.0312 0.0566,0.21263 0.0993,0.29786 0.0674,0.13498 0.23039,0.26221 0.29787,0.39717 0.0148,0.0296 -0.0148,0.0698 0,0.0993 0.0208,0.0419 0.0783,0.0575 0.0993,0.0993 0.0148,0.0295 -0.0148,0.0698 0,0.0993 0.0208,0.0419 0.0733,0.0604 0.0993,0.0993 0.041,0.0615 0.0469,0.14626 0.0993,0.19858 0.0233,0.0235 0.0846,-0.0295 0.0993,0 0.0295,0.0592 -0.0208,0.13585 0,0.19857 0.0148,0.0444 0.0733,0.0604 0.0993,0.0993 0.0635,0.0954 0.22276,0.42135 0.29786,0.49643 0.0233,0.0235 0.0759,-0.0233 0.0993,0 0.0233,0.0235 -0.0234,0.0759 0,0.0993 0.0233,0.0234 0.0759,-0.0233 0.0993,0 0.0233,0.0234 -0.0233,0.0759 0,0.0993 0.0523,0.0523 0.13699,0.0582 0.19857,0.0993 0.16227,0.10818 0.31666,0.30727 0.49645,0.39717 0.0592,0.0297 0.15178,-0.0468 0.19857,0 0.0233,0.0233 -0.0233,0.0759 0,0.0993 0.004,0.004 0.91526,0 0.9929,0 0.30569,0 1.02182,0.0673 1.29076,0 0.26909,-0.0673 0.54445,-0.2354 0.79432,-0.29786 0.0643,-0.0162 0.13571,0.0208 0.19857,0 0.0444,-0.0148 0.0575,-0.0783 0.0993,-0.0993 0.0296,-0.0148 0.0698,0.0148 0.0993,0 0.0419,-0.0208 0.0575,-0.0783 0.0993,-0.0993 0.0295,-0.0148 0.0698,0.0148 0.0993,0 0.0837,-0.0419 0.11483,-0.15671 0.19857,-0.19858 0.0295,-0.0148 0.0759,0.0234 0.0993,0 0.20544,-0.20542 -0.31392,0.009 0.0993,-0.19857 0.0296,-0.0148 0.0718,0.0183 0.0993,0 0.16674,-0.11119 0.31411,-0.30599 0.49646,-0.39715 0.24455,-0.12236 -0.0896,0.28822 0.29786,-0.0993 0.0233,-0.0233 -0.0275,-0.0809 0,-0.0993 0.0871,-0.0581 0.20425,-0.0525 0.29787,-0.0993 0.0419,-0.0208 0.0604,-0.0733 0.0993,-0.0993 0.36682,-0.24455 0.0941,0.10441 0.59574,-0.39715 0.0233,-0.0235 -0.0275,-0.081 0,-0.0993 0.0872,-0.0581 0.21078,-0.0412 0.29787,-0.0993 0.0275,-0.0185 -0.0234,-0.0759 0,-0.0993 0.0845,-0.0845 0.20076,-0.12923 0.29787,-0.19858 0.13469,-0.0962 0.25682,-0.21015 0.39715,-0.29787 0.1255,-0.0786 0.27874,-0.10981 0.39715,-0.19857 0.0265,-0.0198 -0.0233,-0.0759 0,-0.0993 0.0523,-0.0523 0.12836,-0.0759 0.19859,-0.0993 0.0314,-0.01 0.0759,0.0233 0.0993,0 0.0233,-0.0233 -0.0235,-0.0759 0,-0.0993 0.0468,-0.0468 0.1393,0.0297 0.19857,0 0.30279,-0.15137 -0.18159,-0.0787 0.29786,-0.19857 0.0643,-0.0159 0.13585,0.0208 0.19858,0 0.0444,-0.0148 0.0558,-0.0818 0.0993,-0.0993 0.12678,-0.0507 0.26337,-0.0724 0.39717,-0.0993 0.0324,-0.006 0.0698,0.0148 0.0993,0 0.0419,-0.0208 0.0548,-0.0846 0.0993,-0.0993 0.0627,-0.0208 0.1357,0.0208 0.19858,0 0.0444,-0.0148 0.0661,-0.0663 0.0993,-0.0993 0.0663,-0.0331 0.12836,-0.0759 0.19859,-0.0993 0.0314,-0.01 0.0661,0 0.0993,0 0.0661,-0.0331 0.12836,-0.0759 0.19858,-0.0993 0.0627,-0.0208 0.1393,0.0297 0.19858,0 0.0419,-0.0208 0.0575,-0.0783 0.0993,-0.0993 0.098,-0.0489 0.29922,-0.0503 0.39716,-0.0993 0.0419,-0.0208 0.0575,-0.0783 0.0993,-0.0993 0.0592,-0.0295 0.13932,0.0296 0.19858,0 0.0419,-0.0208 0.0548,-0.0845 0.0993,-0.0993 0.15699,-0.0523 0.33593,0.0402 0.49645,0 0.0454,-0.0113 0.0538,-0.0879 0.0993,-0.0993 0.19264,-0.0481 0.39715,0 0.59573,0 0.17537,0 0.42738,-0.042 0.59574,0 0.40951,0.10241 0.7977,0.23966 1.19148,0.39717 0.0973,0.0389 0.21079,0.0412 0.29786,0.0993 0.0275,0.0183 -0.0234,0.0759 0,0.0993 0.0235,0.0233 0.0663,0 0.0993,0 0.0331,0.0663 0.0582,0.137 0.0993,0.19857 0.10128,0.15184 0.13715,0.0779 0.29787,0.19858 0.46065,-0.085 0.11421,0.21348 0.19858,0.29786 0.0845,0.0845 0.21349,0.1142 0.29787,0.19859 0.0235,0.0233 -0.0233,0.0759 0,0.0993 0.0845,0.0845 0.19113,0.14522 0.29787,0.19858 0.0295,0.0148 0.0759,-0.0233 0.0993,0 0.0523,0.0523 0.0469,0.14624 0.0993,0.19858 0.0233,0.0233 0.0759,-0.0233 0.0993,0 0.0523,0.0523 0.0548,0.1393 0.0993,0.19857 0.0663,0.0663 0.1324,0.13239 0.19857,0.19859 0,0.0331 -0.0148,0.0698 0,0.0993 0.0208,0.0419 0.0783,0.0575 0.0993,0.0993 0.0148,0.0295 -0.0199,0.0728 0,0.0993 0.14046,0.18723 0.36663,0.30173 0.49645,0.49644 0.0183,0.0275 -0.0148,0.0698 0,0.0993 0.0674,0.13499 0.23039,0.26222 0.29787,0.39717 0.0468,0.0936 0.0525,0.20426 0.0993,0.29787 0.0208,0.0419 0.0663,0.0661 0.0993,0.0993 0.0663,0.16548 0.11884,0.33704 0.19857,0.49646 0.0208,0.0419 0.07,0.0627 0.0993,0.0993 0.10329,0.12923 0.20168,0.2625 0.29787,0.39716 0.13873,0.19421 0.25396,0.40482 0.39715,0.59574 0.11233,0.14978 0.2802,0.25096 0.39717,0.39715 0.0463,0.0577 0.0548,0.13931 0.0993,0.19857 0.15412,0.20551 0.48028,0.36485 0.59573,0.59575 0.0148,0.0297 -0.0183,0.0718 0,0.0993 0.38379,0.57569 0.0478,0.0734 0.29788,0.19858 0.0661,0.0331 0.26477,0.23168 0.29787,0.29787 0.0148,0.0295 -0.0233,0.0759 0,0.0993 0.0233,0.0233 0.0759,-0.0233 0.0993,0 0.0233,0.0233 -0.0233,0.0759 0,0.0993 0.0233,0.0233 0.0759,-0.0233 0.0993,0 0.0523,0.0523 0.0469,0.14625 0.0993,0.19857 0.0233,0.0233 0.0718,-0.0183 0.0993,0 0.11684,0.0779 0.17229,0.23508 0.29789,0.29786 0.0295,0.0148 0.0759,-0.0233 0.0993,0 0.0233,0.0233 -0.0148,0.0698 0,0.0993 0.0851,0.17024 0.19262,0.0408 0.29787,0.19859 0.041,0.0615 0.0469,0.14623 0.0993,0.19858 0.0235,0.0233 0.0698,-0.0148 0.0993,0 0.0419,0.0208 0.0604,0.0733 0.0993,0.0993 0.0615,0.041 0.14626,0.0469 0.19861,0.0993 0.0523,0.0523 0.0582,0.13701 0.0993,0.19858 0.12086,0.18129 0.29065,0.14533 0.39716,0.19858 0.17046,0.0853 0.0144,0.15598 0.0993,0.19858 0.0592,0.0295 0.1357,-0.0208 0.19857,0 0.0887,0.0295 0.10981,0.16898 0.19859,0.19858 0.0627,0.0208 0.13714,-0.0246 0.19858,0 0.11081,0.0444 0.19113,0.14521 0.29787,0.19858 0.0776,0.0388 0.31965,0.0605 0.39715,0.0993 0.0419,0.0208 0.0575,0.0783 0.0993,0.0993 0.0688,0.0344 0.31347,0.0714 0.39715,0.0993 0.35995,0.11998 0.0707,0.0471 0.29787,0.19859 0.0499,0.21875 0.20426,0.0525 0.29787,0.0993 0.0419,0.0208 0.0575,0.0783 0.0993,0.0993 0.0297,0.0148 0.0698,-0.0148 0.0993,0 0.41321,0.2066 -0.10617,-0.008 0.0993,0.19858 0.0233,0.0233 0.0759,-0.0233 0.0993,0 0.0233,0.0233 0,0.0663 0,0.0993 0.0331,0 0.0759,-0.0233 0.0993,0 0.0235,0.0233 -0.0233,0.0759 0,0.0993 0.0235,0.0233 0.0759,-0.0233 0.0993,0 0.0234,0.0233 -0.0148,0.0698 0,0.0993 0.0687,0.1373 0.19858,0.23102 0.19858,0.39717 0,0.0606 -0.0387,0.35847 0,0.39715 0.0235,0.0233 0.0759,-0.0233 0.0993,0 0.0459,0.0459 -0.03,0.23792 0,0.29787 0.0208,0.0419 0.0783,0.0575 0.0993,0.0993 0.0468,0.0936 0.0525,0.20427 0.0993,0.29788 0.0684,0.13686 0.21169,0.26789 0.29787,0.39715 0.0331,0.0663 0.0663,0.13239 0.0993,0.19858 0,0.0331 -0.0148,0.0698 0,0.0993 0.0419,0.0837 0.15671,0.11483 0.19857,0.19859 0.0148,0.0295 -0.0148,0.0698 0,0.0993 0.0419,0.0837 0.14666,0.12073 0.19858,0.19857 0.40186,0.6028 -0.28582,-0.31088 0.19859,0.49645 0.0481,0.0802 0.14234,0.12374 0.19857,0.19859 0.0998,0.13311 0.14133,0.35341 0.19858,0.49644 0.0331,0.0661 0.0663,0.13239 0.0993,0.19858 0.0331,0.0331 0.0784,0.0575 0.0993,0.0993 0.29985,0.59969 -0.0144,0.042 0.0993,0.49646 0.0876,0.35043 0.40884,0.64246 0.49644,0.99289 0.0159,0.0642 -0.0246,0.13714 0,0.19857 -0.0551,0.24591 0.22387,0.24914 0.29787,0.39717 0.0148,0.0295 -0.0148,0.0698 0,0.0993 0.0208,0.0419 0.0784,0.0575 0.0993,0.0993 0.0148,0.0297 0,0.0663 0,0.0993 0.0331,0.0663 0.0582,0.13699 0.0993,0.19857 0.0763,0.11458 0.22151,0.18331 0.29788,0.29786 0.0183,0.0275 -0.0235,0.0759 0,0.0993 0.0233,0.0235 0.0698,-0.0148 0.0993,0 0.1191,0.0596 0.17872,0.23831 0.29787,0.29788 0.0936,0.0468 0.20425,0.0525 0.29786,0.0993 0.0419,0.0208 0.0548,0.0846 0.0993,0.0993 0.0627,0.0208 0.13442,-0.0159 0.1986,0 0.0718,0.0181 0.12836,0.0759 0.19858,0.0993 0.2085,0.0694 0.4865,-0.0694 0.69502,0 0.0702,0.0233 0.12836,0.0759 0.19857,0.0993 0.32767,0.10918 0.76454,-0.10918 1.09219,0 0.0701,0.0235 0.12836,0.0759 0.19858,0.0993 0.26809,0.0893 0.62552,-0.0894 0.89361,0 0.0443,0.0148 0.0548,0.0846 0.0993,0.0993 0.17913,0.0596 1.14635,0 1.39004,0 0.20847,0 1.41855,0.0567 1.58865,0 0.0701,-0.0233 0.12836,-0.0759 0.19857,-0.0993 0.14481,-0.0482 0.34069,0 0.49645,0 0.59573,0 1.19148,0 1.78722,0 0.59573,0 1.19147,0 1.78719,0 0.17712,0 0.78048,0.0566 0.89361,0 0.0419,-0.0208 0.0548,-0.0845 0.0993,-0.0993 0.20654,-0.0689 0.81281,0 1.09219,0"
                 id="path1467-9" />
              <path
                 style="display:inline;fill:none;fill-opacity:1;stroke:#b463ff;stroke-width:4.84002;stroke-dasharray:none;stroke-opacity:1"
                 d="m 380.34243,120.4981 c 0.21464,-0.10228 0.57307,-0.25254 0.69503,-0.49646 0.0148,-0.0297 -0.0148,-0.0698 0,-0.0993 0.0208,-0.0419 0.0784,-0.0575 0.0993,-0.0993 0.0296,-0.0592 -0.0468,-0.15178 0,-0.19858 0.0233,-0.0233 0.0759,0.0234 0.0993,0 0.0497,-0.0497 -0.0497,-0.24823 0,-0.29787 0.0233,-0.0233 0.0759,0.0234 0.0993,0 0.0663,-0.0663 -0.0663,-0.13225 0,-0.19858 0.0233,-0.0234 0.0759,0.0233 0.0993,0 0.0468,-0.0468 -0.0297,-0.13931 0,-0.19858 0.0419,-0.0837 0.15671,-0.11483 0.19858,-0.19858 0.0148,-0.0297 -0.0148,-0.0698 0,-0.0993 0.21174,-0.42349 -0.0129,0.22491 0.19859,-0.19857 0.0148,-0.0297 -0.0233,-0.0759 0,-0.0993 0.0233,-0.0233 0.0759,0.0233 0.0993,0 0.0233,-0.0233 -0.0235,-0.0759 0,-0.0993 0.0233,-0.0233 0.0759,0.0233 0.0993,0 0.0233,-0.0233 -0.0235,-0.0759 0,-0.0993 0.0233,-0.0233 0.0759,0.0233 0.0993,0 0.0233,-0.0233 -0.0233,-0.0759 0,-0.0993 0.0233,-0.0233 0.0759,0.0233 0.0993,0 0.20544,-0.20544 -0.31392,0.009 0.0993,-0.19857 0.0298,-0.0148 0.0759,0.0233 0.0993,0 0.0235,-0.0234 -0.0148,-0.0698 0,-0.0993 0.0208,-0.0419 0.0783,-0.0575 0.0993,-0.0993 0.0148,-0.0296 -0.01,-0.0679 0,-0.0993 0.0695,-0.20852 0.22837,-0.38724 0.29788,-0.59574 0.028,-0.0837 -0.0392,-0.21945 0,-0.29786 0.0208,-0.0419 0.0783,-0.0575 0.0993,-0.0993 0.0296,-0.0592 -0.0208,-0.13585 0,-0.19859 0.0233,-0.0701 0.0815,-0.12678 0.0993,-0.19857 0.0344,-0.13786 -0.0633,-0.3699 0,-0.49644 0.0208,-0.0419 0.0784,-0.0575 0.0993,-0.0993 0.0592,-0.11847 -0.026,-0.26734 0,-0.39716 0.0146,-0.0727 0.0814,-0.12678 0.0993,-0.19858 0.0449,-0.17947 -0.0723,-0.64957 0,-0.79431 0.0148,-0.0297 0.0846,0.0297 0.0993,0 0.0497,-0.0993 -0.0247,-0.19858 0,-0.29787 0.0254,-0.10153 0.0788,-0.19524 0.0993,-0.29786 0.0195,-0.0974 -0.0444,-0.20907 0,-0.29788 0.0208,-0.0419 0.0784,-0.0575 0.0993,-0.0993 0.0656,-0.13139 0.0653,-0.55898 0.0993,-0.69501 0.0179,-0.0718 0.0759,-0.12836 0.0993,-0.1986 0.0496,-0.14893 -0.0497,-0.34751 0,-0.49644 0.0148,-0.0444 0.0784,-0.0575 0.0993,-0.0993 0.0296,-0.0592 -0.0208,-0.13586 0,-0.19858 0.11407,-0.34228 0.0993,-0.0737 0.0993,-0.29788 0,-0.0993 -0.0444,-0.20906 0,-0.29787 0.0208,-0.0419 0.0783,-0.0575 0.0993,-0.0993 0.0904,-0.1807 -0.063,-0.50612 0,-0.69502 0.0233,-0.0702 0.0847,-0.12607 0.0993,-0.19858 0.0194,-0.0974 -0.0144,-0.19959 0,-0.29787 0.0193,-0.13514 0.0768,-0.26256 0.0993,-0.39717 0.0163,-0.098 -0.0241,-0.20155 0,-0.29787 0.0254,-0.10152 0.0739,-0.19633 0.0993,-0.29785 0.0484,-0.1935 -0.0883,-0.51854 0,-0.69504 0.0208,-0.0419 0.0846,-0.0548 0.0993,-0.0993 0.0644,-0.19313 -0.039,-0.49976 0,-0.69503 0.0146,-0.0727 0.0759,-0.12836 0.0993,-0.19858 0.0694,-0.2085 -0.0694,-0.4865 0,-0.69503 0.0235,-0.0701 0.0759,-0.12836 0.0993,-0.19857 0.0761,-0.22815 -0.10642,-0.58149 0,-0.79432 0.0208,-0.0419 0.0783,-0.0575 0.0993,-0.0993 0.0418,-0.0837 -0.0431,-0.5527 0,-0.59574 0.0233,-0.0233 0.0759,0.0233 0.0993,0 0.0235,-0.0233 -0.01,-0.0679 0,-0.0993 0.0602,-0.18078 0.1383,-0.31567 0.19859,-0.49645 0.01,-0.0314 -0.0185,-0.0718 0,-0.0993 0.0518,-0.0779 0.14665,-0.12073 0.19857,-0.19857 0.0368,-0.055 -0.021,-0.13586 0,-0.19858 0.0144,-0.0412 0.27095,-0.46954 0.29786,-0.49646 0.0235,-0.0233 0.0759,0.0233 0.0993,0 0.3875,-0.3875 -0.023,-0.0533 0.0993,-0.29786 0.0419,-0.0837 0.15672,-0.11483 0.19859,-0.19857 0.0148,-0.0297 -0.0148,-0.0698 0,-0.0993 0.0994,-0.1989 0.44273,-0.38169 0.59572,-0.49644 0.0749,-0.0562 0.12073,-0.14665 0.19858,-0.19857 0.12311,-0.0821 0.27401,-0.11634 0.39716,-0.19859 0.0389,-0.026 0.0575,-0.0784 0.0993,-0.0993 0.0592,-0.0297 0.13946,0.0296 0.19858,0 0.0419,-0.0208 0.0575,-0.0783 0.0993,-0.0993 0.0296,-0.0148 0.0759,0.0233 0.0993,0 0.0235,-0.0233 -0.0233,-0.0759 0,-0.0993 0.0235,-0.0233 0.0698,0.0148 0.0993,0 0.45441,-0.2272 -0.42133,0.0412 0.29788,-0.19858 0.0314,-0.01 0.0698,0.0148 0.0993,0 0.12562,-0.0627 0.18553,-0.21361 0.29787,-0.29785 -0.0113,-0.1881 0.23167,-0.0661 0.29787,-0.0993 0.2157,-0.10793 0.32352,-0.3107 0.49644,-0.39717 0.0296,-0.0148 0.0698,0.0148 0.0993,0 0.0419,-0.0208 0.0604,-0.0733 0.0993,-0.0993 0.0616,-0.041 0.14626,-0.0469 0.19858,-0.0993 0.0235,-0.0233 -0.0233,-0.0759 0,-0.0993 0.14913,-0.14913 0.41979,-0.13988 0.59574,-0.19857 0.2072,-0.069 0.28925,-0.22881 0.49644,-0.29789 0.29558,-0.0985 -0.20372,0.23512 0.29789,-0.0993 0.0389,-0.026 0.0575,-0.0783 0.0993,-0.0993 0.0887,-0.0444 0.20905,0.0444 0.29785,0 0.0298,-0.0148 -0.0233,-0.0759 0,-0.0993 0.0665,-0.0665 0.40548,0.0181 0.49646,0 0.13383,-0.0269 0.27045,-0.0486 0.39715,-0.0993 0.0436,-0.0174 0.0538,-0.0878 0.0993,-0.0993 0.12894,-0.0323 0.35875,0.0459 0.49646,0 0.0702,-0.0233 0.12836,-0.0759 0.19858,-0.0993 0.14893,-0.0497 0.3475,0.0497 0.49643,0 0.0444,-0.0148 0.0535,-0.09 0.0993,-0.0993 0.15647,-0.1088 0.33321,0.0272 0.49645,0 0.16647,-0.0277 0.32939,-0.0754 0.49646,-0.0993 0.25497,-0.0364 0.54373,0.0314 0.7943,0 0.10391,-0.0129 0.19463,-0.0821 0.29787,-0.0993 0.0974,-0.0163 0.47964,0.0581 0.59574,0 0.0419,-0.0208 0.0548,-0.0846 0.0993,-0.0993 0.16093,-0.0536 1.6227,0 1.8865,0 0.24151,0 0.73064,0.0655 0.99289,0 0.10153,-0.0254 0.19635,-0.0739 0.29789,-0.0993 0.28032,-0.0701 0.61324,0.07 0.89358,0 0.10153,-0.0254 0.19525,-0.0788 0.29788,-0.0993 0.0974,-0.0195 0.20156,0.0241 0.29788,0 0.75704,-0.18927 -0.23359,-0.0129 0.69502,-0.19858 0.065,-0.0129 0.13571,0.0208 0.19857,0 0.0702,-0.0233 0.12607,-0.0848 0.19858,-0.0993 0.0974,-0.0195 0.20368,0.0314 0.29787,0 0.0314,-0.01 -0.0297,-0.0846 0,-0.0993 0.12198,-0.0611 0.2677,-0.0562 0.39716,-0.0993 0.14046,-0.0468 0.25674,-0.15179 0.39716,-0.19858 0.0314,-0.01 0.0663,0 0.0993,0 0.13241,-0.0331 0.27511,-0.0383 0.39717,-0.0993 0.0296,-0.0148 -0.0233,-0.0759 0,-0.0993 0.0497,-0.0497 0.24822,0.0497 0.29787,0 0.0233,-0.0233 -0.0297,-0.0845 0,-0.0993 0.0592,-0.0297 0.13441,0.0159 0.19858,0 0.0718,-0.0179 0.12835,-0.0759 0.19857,-0.0993 0.0627,-0.0208 0.15178,0.0468 0.19859,0 0.0233,-0.0233 -0.0233,-0.0759 0,-0.0993 0.0468,-0.0468 0.13932,0.0297 0.19858,0 0.0419,-0.0208 0.0575,-0.0783 0.0993,-0.0993 0.0592,-0.0297 0.15178,0.0468 0.19858,0 0.0233,-0.0233 -0.0235,-0.0759 0,-0.0993 0.0468,-0.0468 0.13932,0.0297 0.19858,0 0.0837,-0.0419 0.11483,-0.15672 0.1986,-0.19857 0.0965,-0.0483 0.30065,-0.051 0.39715,-0.0993 0.1068,-0.0533 0.19112,-0.1452 0.29786,-0.19858 0.0936,-0.0468 0.2108,-0.0412 0.29787,-0.0993 0.0275,-0.0183 -0.0234,-0.0759 0,-0.0993 0.0354,-0.2439 0.21078,-0.0412 0.29787,-0.0993 0.0779,-0.0518 0.12073,-0.14666 0.19857,-0.19857 0.0275,-0.0183 0.0698,0.0148 0.0993,0 0.1191,-0.0596 0.17874,-0.2383 0.29787,-0.29789 0.0298,-0.0148 0.0759,0.0233 0.0993,0 0.0233,-0.0233 -0.0233,-0.0759 0,-0.0993 0.0233,-0.0233 0.0698,0.0148 0.0993,0 0.0419,-0.0208 0.0604,-0.0733 0.0993,-0.0993 0.0615,-0.041 0.14623,-0.0469 0.19858,-0.0993 0.0233,-0.0233 -0.0235,-0.0759 0,-0.0993 0.0233,-0.0233 0.0759,0.0233 0.0993,0 0.0233,-0.0233 0,-0.0663 0,-0.0993 0.0663,-0.0331 0.14626,-0.0469 0.19858,-0.0993 0.0233,-0.0233 -0.0148,-0.0698 0,-0.0993 0.0586,-0.11721 0.22486,-0.18834 0.29786,-0.29788 0.041,-0.0615 0.0469,-0.14623 0.0993,-0.19858 0.0233,-0.0233 0.0759,0.0233 0.0993,0 0.0523,-0.0523 0.0548,-0.1393 0.0993,-0.19857 0.12878,-0.17168 0.40055,-0.30467 0.49644,-0.49646 0.0148,-0.0297 -0.0148,-0.0698 0,-0.0993 0.0506,-0.10115 0.21731,-0.2173 0.29787,-0.29786 0.11948,-0.11947 0.26295,-0.30769 0.39715,-0.39715 0.0275,-0.0185 0.0698,0.0148 0.0993,0 0.2383,-0.1191 0.35746,-0.47659 0.59574,-0.59574 0.0296,-0.0148 0.0697,0.0148 0.0993,0 0.0837,-0.0419 0.11483,-0.15671 0.19858,-0.19858 0.0296,-0.0148 0.0759,0.0233 0.0993,0 0.0235,-0.0233 -0.0235,-0.0759 0,-0.0993 0.0235,-0.0233 0.0698,0.0148 0.0993,0 0.0419,-0.0208 0.0575,-0.0784 0.0993,-0.0993 0.0297,-0.0148 0.0759,0.0233 0.0993,0 0.0233,-0.0233 -0.0233,-0.0759 0,-0.0993 0.0233,-0.0233 0.0698,0.0148 0.0993,0 0.0419,-0.0208 0.0575,-0.0783 0.0993,-0.0993 0.24455,-0.12236 -0.0896,0.28821 0.29789,-0.0993 0.0233,-0.0233 -0.0234,-0.0759 0,-0.0993 0.13238,-0.1324 0.0993,0.16549 0.0993,-0.0993 0.37531,-0.2564 0.76625,-0.52624 1.19333,-0.69706 0.0308,-0.0129 0.0698,0.0148 0.0993,0 0.0419,-0.0208 0.0575,-0.0783 0.0993,-0.0993 0.0295,-0.0148 0.0679,0.01 0.0993,0 0.17589,0.0494 0.18707,-0.15427 0.29786,-0.19859 0.11746,-0.32734 0.33635,-0.0459 0.49644,-0.0993 0.22565,-0.0752 0.48966,-0.17463 0.69504,-0.29787 0.10228,-0.0614 0.19113,-0.14522 0.29786,-0.19858 0.0297,-0.0148 0.0679,0.01 0.0993,0 0.14047,-0.0468 0.274,-0.11659 0.39715,-0.19857 0.0389,-0.026 0.0575,-0.0783 0.0993,-0.0993 0.0295,-0.0148 0.0759,0.0233 0.0993,0 0.0523,-0.0523 0.0469,-0.14625 0.0993,-0.19859 0.0233,-0.0233 0.0698,0.0148 0.0993,0 0.0837,-0.0419 0.12073,-0.14664 0.19859,-0.19858 0.12324,-0.0821 0.2925,-0.0939 0.39717,-0.19858 0.0233,-0.0233 -0.0183,-0.0718 0,-0.0993 0.0356,-0.0535 0.30671,-0.35193 0.39715,-0.39716 0.0295,-0.0148 0.0759,0.0233 0.0993,0 0.0235,-0.0233 -0.0148,-0.0698 0,-0.0993 0.20661,-0.41322 -0.008,0.10617 0.19859,-0.0993 0.0523,-0.0523 0.0469,-0.14626 0.0993,-0.19858 0.0233,-0.0233 0.0698,0.0148 0.0993,0 0.1068,-0.0533 0.20242,-0.12691 0.29787,-0.19857 0.0374,-0.0281 0.0604,-0.0733 0.0993,-0.0993 0.0616,-0.041 0.14626,-0.0469 0.19858,-0.0993 0.0233,-0.0233 -0.0275,-0.081 0,-0.0993 0.0871,-0.0581 0.20427,-0.0525 0.29788,-0.0993 0.12563,-0.0628 0.18103,-0.21997 0.29786,-0.29786 0.0275,-0.0183 0.0661,0 0.0993,0 0.0663,-0.0331 0.13701,-0.0582 0.19858,-0.0993 0.11683,-0.0779 0.18554,-0.21362 0.29788,-0.29787 0.0592,-0.0444 0.13931,-0.0548 0.19857,-0.0993 0.0749,-0.0562 0.12073,-0.14664 0.19858,-0.19857 0.0275,-0.0183 0.0698,0.0148 0.0993,0 0.0837,-0.0419 0.12374,-0.14241 0.19858,-0.19858 0.0955,-0.0715 0.19555,-0.13718 0.29788,-0.19858 0.41973,-0.25185 0.82938,-0.32343 1.29076,-0.49645 0.0438,-0.0164 0.0604,-0.0733 0.0993,-0.0993 0.0615,-0.041 0.13052,-0.0701 0.19858,-0.0993 0.25991,-0.11145 0.54139,-0.17141 0.79431,-0.29786 0.0419,-0.021 0.0548,-0.0845 0.0993,-0.0993 0.0627,-0.021 0.13716,0.0246 0.19858,0 0.11081,-0.0443 0.20241,-0.12698 0.29788,-0.19859 0.0375,-0.0281 0.0548,-0.0845 0.0993,-0.0993 0.0663,0 0.1324,0 0.19857,0 0,-0.0331 -0.0296,-0.0845 0,-0.0993 0.0592,-0.0296 0.13572,0.021 0.19858,0 0.0444,-0.0148 0.0619,-0.0712 0.0993,-0.0993 0.0955,-0.0716 0.19113,-0.14521 0.29787,-0.19858 0.0295,-0.0148 0.0718,0.0183 0.0993,0 0.0779,-0.0519 0.12374,-0.14241 0.19857,-0.19858 0.21346,-0.1601 0.45637,-0.27782 0.69504,-0.39716 0.0295,-0.0148 0.0718,0.0183 0.0993,0 0.0779,-0.0519 0.12073,-0.14665 0.19857,-0.19858 0.0275,-0.0183 0.0718,0.0183 0.0993,0 0.0779,-0.0519 0.12073,-0.14665 0.19858,-0.19857 0.0275,-0.0183 0.0718,0.0183 0.0993,0 0.18267,-0.12177 0.30048,-0.39847 0.49646,-0.49645 0.0936,-0.0468 0.20425,-0.0525 0.29785,-0.0993 0.14802,-0.074 0.25349,-0.21577 0.39716,-0.29787 0.12851,-0.0734 0.27024,-0.12242 0.39716,-0.19858 0.16055,-0.0963 0.25334,-0.2773 0.39715,-0.39716 0.44044,-0.36702 0.94482,-0.63669 1.39007,-0.99289 0.28907,-0.23127 0.49814,-0.57218 0.79431,-0.79432 0.0592,-0.0444 0.13699,-0.0582 0.19858,-0.0993 0.18323,-0.12215 0.24946,-0.34876 0.39716,-0.49645 0.0523,-0.0523 0.14625,-0.047 0.19857,-0.0993 0.0235,-0.0234 -0.0233,-0.0759 0,-0.0993 0.0845,-0.0844 0.21349,-0.1142 0.29788,-0.19858 0.0523,-0.0523 0.0582,-0.137 0.0993,-0.19857 0.0759,-0.11386 0.3351,-0.25133 0.39716,-0.29787 0.11232,-0.0842 0.18553,-0.21362 0.29785,-0.29787 0.11847,-0.0888 0.27876,-0.10978 0.39718,-0.19858 0.0749,-0.0562 0.12374,-0.14241 0.19858,-0.19858 0.0412,-0.0309 0.63498,-0.37314 0.69502,-0.39716 0.16548,-0.0662 0.32736,-0.14222 0.49644,-0.19858 0.0314,-0.0105 0.0698,0.0148 0.0993,0 0.0419,-0.0209 0.0604,-0.0733 0.0993,-0.0993 0.12324,-0.0821 0.27402,-0.11647 0.39717,-0.19858 0.0389,-0.026 0.0575,-0.0784 0.0993,-0.0993 0.0296,-0.0148 0.0698,0.0148 0.0993,0 0.0419,-0.0209 0.0548,-0.0845 0.0993,-0.0993 0.0627,-0.0209 0.13571,0.0209 0.19858,0 0.0887,-0.0296 0.11483,-0.15671 0.19858,-0.19857 0.0297,-0.0148 0.0663,0 0.0993,0 0.0661,-0.0331 0.137,-0.0582 0.19857,-0.0993 0.0389,-0.026 0.0575,-0.0784 0.0993,-0.0993 0.0296,-0.0148 0.0663,0 0.0993,0 0.13239,-0.0662 0.27022,-0.12243 0.39715,-0.19858 0.0402,-0.0241 0.0575,-0.0784 0.0993,-0.0993 0.0592,-0.0296 0.13945,0.0296 0.19859,0 0.0419,-0.0209 0.0575,-0.0784 0.0993,-0.0993 0.0592,-0.0296 0.13931,0.0296 0.19857,0 1.33901,-0.6695 -0.6521,0.20126 0.59574,-0.29787 0.23603,-0.0944 0.49885,-0.24021 0.69503,-0.39716 0.073,-0.0585 0.12073,-0.14665 0.19857,-0.19858 0.0275,-0.0183 0.0709,0.017 0.0993,0 0.28833,-0.173 0.49323,-0.44519 0.79431,-0.59573 0.0295,-0.0148 0.0698,0.0148 0.0993,0 0.41323,-0.20661 -0.10617,0.007 0.0993,-0.19858 0.3875,-0.3875 0.0533,0.023 0.29786,-0.0993 0.0419,-0.0209 0.0575,-0.0784 0.0993,-0.0993 0.0297,-0.0148 0.0679,0.0105 0.0993,0 0.0701,-0.0234 0.12836,-0.0759 0.19858,-0.0993 0.14892,-0.0496 0.0993,0.0993 0.29787,0 0.0295,-0.0148 -0.0314,-0.0888 0,-0.0993 0.0942,-0.0314 0.19993,0.0163 0.29787,0 0.10328,-0.0172 0.19633,-0.0739 0.29785,-0.0993 0.0321,-0.008 0.0698,0.0148 0.0993,0 0.0419,-0.0209 0.0575,-0.0784 0.0993,-0.0993 0.0297,-0.0148 0.0679,0.0105 0.0993,0 0.0702,-0.0234 0.12678,-0.0813 0.19859,-0.0993 0.0934,-0.0482 0.20155,0.0241 0.29787,0 0.0993,-0.0331 0.19858,-0.0662 0.29786,-0.0993 0.0331,-0.0331 0.0548,-0.0845 0.0993,-0.0993 0.0942,-0.0314 0.20906,0.0444 0.29788,0 0.0419,-0.0209 0.0604,-0.0733 0.0993,-0.0993 0.18473,-0.12317 0.38511,-0.22766 0.59573,-0.29787 0.68161,-0.2272 -0.46247,0.38017 0.49645,-0.0993 0.0419,-0.0209 0.0548,-0.0845 0.0993,-0.0993 0.0627,-0.0209 0.13932,0.0296 0.19858,0 0.0297,-0.0148 -0.0275,-0.0809 0,-0.0993 0.35982,-0.23987 0.19376,-0.0236 0.49646,-0.0993 0.36539,-0.0913 1.2345,-0.57611 1.48934,-0.69503 0.23168,-0.0993 0.46334,-0.19858 0.69502,-0.29787 0.0993,-0.0662 0.19113,-0.14521 0.29787,-0.19858 0.0399,-0.02 0.38734,-0.0895 0.39716,-0.0993 0.0233,-0.0234 -0.0233,-0.0759 0,-0.0993 0.0233,-0.0234 0.0698,0.0148 0.0993,0 0.0419,-0.0209 0.0575,-0.0784 0.0993,-0.0993 0.0295,-0.0148 0.0759,0.0234 0.0993,0 0.0233,-0.0234 -0.0233,-0.0759 0,-0.0993 0.0468,-0.0468 0.1393,0.0296 0.19858,0 0.0419,-0.0209 0.0548,-0.0845 0.0993,-0.0993 0.0627,-0.0209 0.13369,0.013 0.19857,0 0.10253,-0.0205 0.19525,-0.0788 0.29788,-0.0993 0.065,-0.013 0.13586,0.0209 0.19858,0 0.0444,-0.0148 0.0575,-0.0784 0.0993,-0.0993 0.10592,-0.053 0.50213,0 0.59574,0 0.36406,0 0.72813,0 1.09219,0 0.26477,0 0.53467,0.0519 0.7943,0 0.0727,-0.0145 0.12678,-0.0813 0.19859,-0.0993 0.21258,-0.0532 0.48755,0.0691 0.69502,0 0.0443,-0.0148 0.0548,-0.0845 0.0993,-0.0993 0.12562,-0.0419 0.27156,0.0419 0.39716,0 0.0444,-0.0148 0.0549,-0.0845 0.0993,-0.0993 0.0627,-0.0209 0.1324,0 0.19858,0 0.1324,-0.0331 0.27046,-0.0486 0.39716,-0.0993 0.0435,-0.0174 0.0543,-0.0864 0.0993,-0.0993 0.19356,-0.0553 0.40475,-0.0356 0.59573,-0.0993 0.66021,-0.22006 0.004,-0.15734 0.49645,-0.29786 0.16225,-0.0464 0.33634,-0.0459 0.49644,-0.0993 0.0443,-0.0148 0.0663,-0.0662 0.0993,-0.0993 0.0663,-0.0331 0.12836,-0.0759 0.19859,-0.0993 0.0314,-0.0105 0.0661,0 0.0993,0 0.0331,-0.0331 0.0575,-0.0784 0.0993,-0.0993 0.0296,-0.0148 0.0698,0.0148 0.0993,0 0.0419,-0.0209 0.0575,-0.0784 0.0993,-0.0993 0.0295,-0.0148 0.0698,0.0148 0.0993,0 0.11721,-0.0587 0.18833,-0.22485 0.29787,-0.29787 0.0499,-0.21875 0.20426,-0.0525 0.29787,-0.0993 0.0837,-0.0419 0.12073,-0.14666 0.19857,-0.19858 0.0615,-0.0411 0.14626,-0.047 0.19858,-0.0993 0.0233,-0.0234 -0.0233,-0.0759 0,-0.0993 0.0233,-0.0234 0.0698,0.0148 0.0993,0 0.15887,-0.0794 0.23829,-0.31773 0.39716,-0.39716 0.0295,-0.0148 0.0698,0.0148 0.0993,0 0.42196,-0.21098 -0.22339,0.0124 0.19858,-0.19858 0.0297,-0.0148 0.0663,0 0.0993,0 0.0993,-0.0662 0.20241,-0.12698 0.29787,-0.19858 0.19284,-0.14462 0.2506,-0.27424 0.49644,-0.39716 0.0936,-0.0468 0.19858,-0.0662 0.29787,-0.0993 0.0993,-0.0662 0.19115,-0.14521 0.29787,-0.19858 0.0592,-0.0296 0.15178,0.0468 0.19859,0 0.19703,-0.19704 -0.47023,-0.0314 0.19858,-0.19857 0.0642,-0.0161 0.1357,0.0209 0.19857,0 0.2163,0.0371 0.0331,-0.16549 0.0993,-0.19858 0.0592,-0.0296 0.13585,0.0209 0.19858,0 0.0444,-0.0148 0.0604,-0.0733 0.0993,-0.0993 0.0413,-0.2345 0.20812,-0.0454 0.29788,-0.0993 0.1419,-0.0851 0.25525,-0.21273 0.39715,-0.29787 0.0284,-0.017 0.0718,0.0183 0.0993,0 0.0779,-0.0519 0.12073,-0.14666 0.19858,-0.19858 0.0275,-0.0183 0.0663,0 0.0993,0 0.0663,-0.0331 0.137,-0.0582 0.19858,-0.0993 0.0389,-0.026 0.0575,-0.0784 0.0993,-0.0993 0.0296,-0.0148 0.0698,0.0148 0.0993,0 0.0419,-0.0209 0.0604,-0.0733 0.0993,-0.0993 0.12324,-0.0821 0.27024,-0.12243 0.39715,-0.19858 0.10228,-0.0614 0.2047,-0.12404 0.29789,-0.19858 0.073,-0.0585 0.11822,-0.15042 0.19857,-0.19858 0.0897,-0.0538 0.20813,-0.0454 0.29786,-0.0993 0.0802,-0.0482 0.12374,-0.14241 0.19858,-0.19858 0.18831,-0.14122 0.40274,-0.2524 0.59574,-0.39716 0.0749,-0.0562 0.11483,-0.15671 0.19858,-0.19858 0.0296,-0.0148 0.0698,0.0148 0.0993,0 0.0837,-0.0419 0.11483,-0.15671 0.19858,-0.19857 0.0295,-0.0148 0.0698,0.0148 0.0993,0 0.11721,-0.0587 0.18833,-0.22485 0.29786,-0.29787 0.0615,-0.041 0.13931,-0.0549 0.19857,-0.0993 0.0749,-0.0562 0.12073,-0.14666 0.19858,-0.19858 0.0275,-0.0183 0.0698,0.0148 0.0993,0 0.0837,-0.0419 0.11483,-0.15672 0.19859,-0.19858 0.0295,-0.0148 0.0698,0.0148 0.0993,0 0.11722,-0.0586 0.18834,-0.22485 0.29787,-0.29787 0.0354,-0.2439 0.21078,-0.0412 0.29786,-0.0993 0.11458,-0.0764 0.18331,-0.22149 0.29789,-0.29787 0.50629,-0.33753 1.01376,-0.69587 1.48933,-1.09218 0.22582,-0.1882 0.65475,-0.77418 0.8936,-0.89361 0.0295,-0.0148 0.0759,0.0234 0.0993,0 0.0235,-0.0234 -0.0148,-0.0697 0,-0.0993 0.0208,-0.0419 0.0784,-0.0574 0.0993,-0.0993 0.0148,-0.0296 -0.0233,-0.0759 0,-0.0993 0.23443,-0.23443 -0.0522,0.55381 0.19858,-0.19858 0.01,-0.0314 -0.0233,-0.0759 0,-0.0993 0.20542,-0.20543 -0.009,0.31393 0.19858,-0.0993 0.0148,-0.0296 -0.0148,-0.0697 0,-0.0993 0.0208,-0.0419 0.0783,-0.0574 0.0993,-0.0993 0.0148,-0.0296 -0.0235,-0.0759 0,-0.0993 0.0233,-0.0234 0.0759,0.0234 0.0993,0 0.0523,-0.0523 0.0582,-0.137 0.0993,-0.19858 0.0779,-0.11684 0.21362,-0.18553 0.29787,-0.29787 0.0444,-0.0592 0.0582,-0.137 0.0993,-0.19857 0.0763,-0.11456 0.22151,-0.18331 0.29788,-0.29787 0.041,-0.0616 0.0469,-0.14625 0.0993,-0.19858 0.19591,-0.19591 0.43521,-0.25564 0.59573,-0.49645 0.10278,-0.15407 -0.16867,-0.0646 0.0993,-0.19858 0.0297,-0.0148 0.0718,0.0183 0.0993,0 0.18835,-0.12556 0.31529,-0.36058 0.49644,-0.49645 0.0592,-0.0444 0.14626,-0.047 0.19858,-0.0993 0.0523,-0.0523 0.0582,-0.137 0.0993,-0.19857 0.12722,-0.1907 0.35886,-0.31299 0.49646,-0.49645 0.0717,-0.0955 0.12691,-0.20241 0.19857,-0.29787 -0.01,-0.1967 0.14626,-0.047 0.19858,-0.0993 0.11383,-0.11378 0.18408,-0.38266 0.29787,-0.49645 0.4816,-0.48159 -0.006,0.1816 0.29787,-0.19858 0.10341,-0.12922 0.19449,-0.26793 0.29787,-0.39715 0.24593,-0.30741 0.57798,-0.56911 0.79432,-0.89361 0.5738,-0.86071 -1.4573,1.5089 0.79431,-0.99289 0.46411,-0.51567 0.96783,-1.03974 1.39006,-1.58864 0.11772,-0.15296 0.19082,-0.33587 0.29786,-0.49644 0.026,-0.0389 0.0784,-0.0574 0.0993,-0.0993 0.0148,-0.0296 -0.0233,-0.0759 0,-0.0993 0.0235,-0.0234 0.0759,0.0234 0.0993,0 0.20544,-0.20544 -0.31394,0.008 0.0993,-0.19858 0.0295,-0.0148 0.0759,0.0234 0.0993,0 0.0468,-0.0468 -0.0468,-0.15177 0,-0.19858 0.0233,-0.0234 0.0698,0.0148 0.0993,0 0.41322,-0.20661 -0.10617,0.007 0.0993,-0.19858 0.0233,-0.0234 0.0759,0.0234 0.0993,0 0.0523,-0.0523 0.0582,-0.137 0.0993,-0.19858 0.026,-0.0389 0.0783,-0.0574 0.0993,-0.0993 0.0148,-0.0296 -0.0148,-0.0697 0,-0.0993 0.0419,-0.0837 0.11483,-0.15671 0.19858,-0.19858 0.0296,-0.0148 0.0759,0.0234 0.0993,0 0.11383,-0.11377 0.18409,-0.38266 0.29787,-0.49645 0.0523,-0.0523 0.14625,-0.047 0.19858,-0.0993 0.0235,-0.0234 0,-0.0662 0,-0.0993 0.0331,-0.0662 0.0469,-0.14624 0.0993,-0.19857 0.0233,-0.0234 0.0698,0.0148 0.0993,0 0.16457,-0.0823 0.18533,-0.28463 0.29788,-0.39716 0.0233,-0.0234 0.0698,0.0148 0.0993,0 0.19858,-0.0993 0.29787,-0.39716 0.49645,-0.49645 0.0296,-0.0148 0.0759,0.0234 0.0993,0 0.20542,-0.20543 -0.31394,0.008 0.0993,-0.19858 0.0297,-0.0148 0.0698,0.0148 0.0993,0 0.0837,-0.0419 0.11484,-0.15671 0.19859,-0.19858 0.0295,-0.0148 0.0698,0.0148 0.0993,0 0.096,-0.048 0.34918,-0.3012 0.39715,-0.39716 0.0148,-0.0296 -0.0233,-0.0759 0,-0.0993 0.0235,-0.0234 0.0759,0.0234 0.0993,0 0.0233,-0.0234 -0.01,-0.0679 0,-0.0993 0.0233,-0.0702 0.0548,-0.13936 0.0993,-0.19857 0.0562,-0.0749 0.14248,-0.1237 0.19859,-0.19858 0.0444,-0.0592 0.0469,-0.14625 0.0993,-0.19858 0.0233,-0.0234 0.0759,0.0234 0.0993,0 0.0468,-0.0468 -0.0468,-0.15178 0,-0.19858 0.0233,-0.0234 0.0759,0.0234 0.0993,0 0.0233,-0.0234 -0.01,-0.0679 0,-0.0993 0.0233,-0.0702 0.0582,-0.13701 0.0993,-0.19858 0.0518,-0.0779 0.15671,-0.11484 0.19857,-0.19858 0.0296,-0.0592 -0.0468,-0.15177 0,-0.19858 0.0235,-0.0234 0.0759,0.0234 0.0993,0 0.0233,-0.0234 -0.0148,-0.0697 0,-0.0993 0.0419,-0.0837 0.15671,-0.11484 0.19858,-0.19858 0.0296,-0.0592 -0.0295,-0.13936 0,-0.19858 0.0208,-0.0419 0.0783,-0.0574 0.0993,-0.0993 0.0148,-0.0296 -0.0234,-0.0759 0,-0.0993 0.0233,-0.0234 0.0759,0.0234 0.0993,0 0.0233,-0.0234 -0.0148,-0.0697 0,-0.0993 0.2272,-0.4544 -0.0412,0.42133 0.19857,-0.29786 0.0208,-0.0628 -0.0297,-0.13937 0,-0.19858 0.0905,-0.18105 0.0993,-0.0666 0.0993,-0.29787"
                 id="path1469-2" />
              <path
                 style="display:inline;fill:none;fill-opacity:1;stroke:#b463ff;stroke-width:4.84002;stroke-dasharray:none;stroke-opacity:1"
                 d="m 251.52863,131.21423 5.05085,-2.35707 3.36723,-0.33671 h 6.06102 l -1.68362,3.03051 -0.67344,4.71411 -0.33672,6.06102 0.33672,3.36724 0.67344,3.03051 -0.67344,5.05084 1.34689,3.03051 v 3.36723 l -2.35706,3.70396 -1.68362,2.02034 -2.69379,-0.33672 -1.68361,-1.01017 h -2.35706"
                 id="path26252-9" />
              <path
                 style="display:inline;fill:none;fill-opacity:1;stroke:#b463ff;stroke-width:4.84002;stroke-dasharray:none;stroke-opacity:1"
                 d="m 260.69176,164.82238 -0.37046,3.88983 0.37046,2.22277 0.74093,2.96368 1.66707,2.03752 h 1.8523 l 0.92614,-1.66707"
                 id="path2593-6" />
            </g>
            <text
               xml:space="preserve"
               style="font-style:normal;font-variant:normal;font-weight:bold;font-stretch:normal;font-size:28.9461px;font-family:sans-serif;-inkscape-font-specification:'sans-serif Bold';display:inline;fill:#b3b3b3;stroke-width:2.89461"
               x="353.4873"
               y="138.00055"
               id="text2673-0"><tspan
                 sodipodi:role="line"
                 id="tspan2671-9"
                 style="font-style:normal;font-variant:normal;font-weight:bold;font-stretch:normal;font-family:'Johnston ITC Std';-inkscape-font-specification:'Johnston ITC Std Bold';fill:#000000;stroke-width:2.89461"
                 x="353.4873"
                 y="138.00055">L O N D O N</tspan></text>
            <path
               style="fill:#000000;fill-opacity:1;stroke:#000000;stroke-width:0;stroke-dasharray:none;stroke-opacity:1"
               d="m 428.1319,364.6208 -2.2044,-3.34405 -1.53009,0.10006 c -1.17574,0.0765 -1.94747,-0.0872 -3.33326,-0.70969 -1.92731,-0.86493 -2.00743,-1.02123 -1.48599,-2.89923 0.24228,-0.87142 0.21512,-1.41695 -0.11649,-2.378 -1.1666,-3.37971 -1.40824,-4.59712 -1.06282,-5.3552 0.30374,-0.66609 0.22012,-0.88865 -0.77859,-2.08354 -0.74729,-0.89394 -1.43196,-1.39673 -2.06346,-1.51515 -0.68468,-0.12865 -1.07197,-0.4424 -1.40524,-1.13994 -0.86027,-1.79953 -2.83947,-3.99399 -4.15701,-4.60899 -2.46712,-1.15166 -2.61371,-1.12664 -4.95397,0.84327 -1.93017,1.62464 -2.12879,1.89401 -2.1325,2.89186 -0.007,1.72828 -0.29517,2.5015 -0.85242,2.28159 -0.26443,-0.10434 -1.18725,-0.26515 -2.05031,-0.35663 -1.37414,-0.1458 -1.68117,-0.30803 -2.46941,-1.3031 -1.32897,-1.67796 -1.4439,-2.96091 -0.38951,-4.34805 0.46741,-0.61536 1.28909,-1.52244 1.82561,-2.01601 l 0.97535,-0.89744 -1.52444,-3.85856 c -1.3159,-3.33069 -1.71291,-4.03195 -2.90195,-5.12564 l -1.37757,-1.26715 -1.85706,0.18725 -1.85713,0.18725 0.19225,-3.13879 0.19226,-3.13872 -1.75336,0.16866 c -1.54324,0.14866 -1.87793,0.30303 -2.79367,1.28702 -0.57247,0.61464 -1.52594,1.40173 -2.11935,1.74843 -1.54031,0.8998 -5.2778,4.93124 -5.9173,6.38264 -0.29803,0.67539 -0.70183,1.89751 -0.89809,2.71498 -0.26444,1.10327 -0.7252,1.86914 -1.78716,2.97248 -1.29989,1.35049 -1.46069,1.67624 -1.76058,3.56697 -0.18153,1.14436 -0.39165,2.37921 -0.46741,2.74406 -0.21298,1.02873 -1.68603,2.5238 -4.21154,4.2753 -2.01723,1.39901 -2.48378,1.5982 -3.70012,1.57954 -0.76558,-0.0143 -1.59998,-0.19368 -1.85427,-0.40523 -0.41523,-0.34448 -0.40309,-0.46669 0.11864,-1.19997 0.5153,-0.72363 0.54817,-1.02265 0.28802,-2.63643 -0.17438,-1.08376 -0.19296,-2.65809 -0.0429,-3.89086 0.18153,-1.52102 0.14651,-2.25229 -0.13222,-2.75493 -0.62964,-1.13479 -0.47741,-1.62593 1.43875,-4.63351 1.35785,-2.13128 1.8209,-3.12106 1.76815,-3.77922 -0.10577,-1.3214 1.59384,-4.65966 2.69411,-5.29117 0.88294,-0.50671 0.89544,-0.54674 0.68968,-2.21983 -0.16295,-1.32262 -0.55174,-2.25093 -1.74035,-4.14987 -1.48728,-2.37679 -1.57297,-2.45497 -3.01944,-2.75743 -0.81875,-0.17153 -1.62249,-0.40809 -1.78594,-0.52602 -0.36164,-0.26158 -4.007,-4.39393 -5.73463,-6.50071 -0.99386,-1.21197 -1.66595,-1.69439 -3.23606,-2.32297 -2.27137,-0.9093 -2.9732,-0.83726 -4.31268,0.44311 -1.01022,0.96541 -1.5338,1.05418 -3.22684,0.54674 -1.06304,-0.31875 -1.17946,-0.48098 -2.20883,-3.08225 -1.23221,-3.11378 -1.40073,-3.24957 -4.43696,-3.57476 -1.90438,-0.20369 -2.03895,-0.27015 -2.76422,-1.36642 -0.52673,-0.79638 -1.11157,-1.25672 -1.89308,-1.49085 -0.7966,-0.23871 -1.23471,-0.59034 -1.48292,-1.18911 -0.45812,-1.10692 -0.74293,-1.07311 -1.97642,0.23442 l -1.02337,1.08519 -1.68696,-0.26801 c -1.62235,-0.25729 -1.69053,-0.30446 -1.78023,-1.23592 -0.13579,-1.40523 -1.75936,-2.45011 -3.80774,-2.45011 -1.8487,0 -1.78302,0.1608 -2.06361,-5.05324 -0.23871,-4.43611 0.0743,-6.07954 1.21162,-6.36506 0.40738,-0.1022 0.73778,-0.28374 0.73485,-0.40309 -0.003,-0.11935 -0.64537,-0.63536 -1.42696,-1.14637 -1.30367,-0.85206 -1.66802,-0.93903 -4.39058,-1.04838 l -2.9689,-0.11936 -2.34012,-1.70904 c -1.33434,-0.97442 -2.90881,-1.85213 -3.66331,-2.0421 -1.4053,-0.35377 -1.35913,-0.29016 -2.71555,-3.75321 l -0.54745,-1.39723 0.92895,-2.39515 c 0.51101,-1.31739 1.49886,-3.24092 2.1954,-4.27444 0.69683,-1.03359 1.54974,-2.81167 1.89594,-3.95133 0.70612,-2.32496 0.60606,-3.04616 -0.79574,-5.73634 -0.68396,-1.31318 -0.80132,-2.00707 -1.0511,-6.23363 -0.15437,-2.61578 -0.4281,-5.39608 -0.60749,-6.17845 -0.30803,-1.34356 -0.25443,-1.61178 0.96898,-4.83026 1.19933,-3.15466 1.35363,-3.40766 2.07826,-3.40773 0.56032,-1.4e-4 0.83369,-0.19011 0.96205,-0.66895 0.3259,-1.21684 0.19439,-2.37 -0.37736,-3.30896 -0.31018,-0.50958 -0.72627,-1.72942 -0.92417,-2.71034 -0.19797,-0.98091 -0.81911,-3.38593 -1.3805,-5.3444 -1.05403,-3.67703 -2.25114,-5.98292 -3.54688,-6.8319 -0.71513,-0.46884 -0.73135,-0.55603 -0.54817,-2.9509 0.18725,-2.44382 0.1801,-2.47813 -0.71999,-3.50329 l -0.90902,-1.0353 1.02709,-0.58676 1.02702,-0.58677 0.13936,-3.24506 c 0.11078,-2.58005 0.05,-3.38651 -0.31303,-3.93539 -0.26516,-0.40452 -0.52602,-1.73685 -0.63036,-3.21477 l -0.17796,-2.52444 2.4281,0.14008 2.4281,0.14008 1.25814,1.86049 c 1.06854,1.58019 1.47091,1.93032 2.67074,2.3239 0.77694,0.25515 2.49207,1.30696 3.81139,2.33784 1.3194,1.03087 2.58719,1.94661 2.81739,2.03494 0.23014,0.0886 0.94883,-0.25943 1.59684,-0.77258 0.99086,-0.78473 1.19276,-1.13236 1.26916,-2.1846 0.0643,-0.85849 0.21655,-1.22513 0.49028,-1.16781 0.22012,0.0429 3.47519,0.89279 7.23427,1.88178 l 6.83476,1.7981 4.75514,-1.86992 c 3.89036,-1.5298 5.05031,-2.12822 6.37828,-3.29031 0.94711,-0.82883 3.31975,-2.28209 5.6969,-3.48942 4.28051,-2.1741 6.98362,-3.86921 9.70603,-6.08662 1.96684,-1.60198 2.93282,-1.82082 6.16724,-1.39694 2.56746,0.33663 4.21798,0.1165 7.71554,-1.02822 1.32569,-0.43382 1.45798,-0.42239 3.20076,0.28587 l 1.81797,0.73871 0.40737,-0.65037 c 0.66824,-1.0664 1.00436,-2.57847 1.19518,-5.37585 0.15152,-2.22277 0.41667,-3.24278 1.65959,-6.39087 2.5496,-6.45675 3.22377,-7.02243 4.11049,-3.44868 0.45455,1.8319 4.06153,9.36334 4.48435,9.36334 0.16938,0 0.57247,-0.51958 0.89679,-1.15523 0.59534,-1.16716 3.02895,-3.52358 5.17388,-5.01007 l 1.16681,-0.80853 0.7287,0.94489 0.72878,0.94497 2.51658,-1.83505 c 2.19482,-1.60048 2.7615,-2.2154 4.43246,-4.81038 l 1.91595,-2.97534 v -5.05117 -5.05124 l 2.49878,2.48577 2.49878,2.48578 3.31697,-0.21512 c 1.82432,-0.11793 3.73549,-0.33519 4.24699,-0.48171 0.80946,-0.23227 1.25979,-0.0872 3.47327,1.11593 l 2.54324,1.38264 4.90465,0.13293 4.90459,0.13294 2.378,1.28309 c 2.31668,1.25 2.41495,1.27458 3.81203,0.95147 1.12886,-0.26086 2.63843,-0.21727 7.09298,0.20655 3.11249,0.29588 5.98084,0.53816 6.37421,0.53816 0.39308,0 0.78037,0.10577 0.86006,0.23442 0.0793,0.12864 -0.05,1.08205 -0.28802,2.11792 -0.238,1.03595 -0.56747,3.21276 -0.73142,4.83733 -0.28088,2.77816 -0.26372,2.97813 0.2823,3.36092 0.51172,0.35878 0.58105,0.7683 0.58248,3.43703 l 0.001,3.02995 2.75071,1.68961 2.75079,1.6896 2.82111,-0.16438 2.82111,-0.16438 0.98249,1.72563 c 0.93896,1.64923 0.96726,1.78859 0.64036,3.15044 l -0.34162,1.42489 1.31789,1.56668 c 0.72485,0.86163 1.72742,2.16859 2.22792,2.90422 1.19532,1.75715 2.376,2.81547 3.59526,3.22256 0.54532,0.18225 1.61514,0.85056 2.378,1.48556 2.65488,2.21019 4.51901,2.65187 6.57383,1.55768 0.99685,-0.53102 1.0616,-0.53031 2.33047,0.0143 1.24157,0.53245 1.34734,0.53459 2.1701,0.05 0.91588,-0.54103 1.04552,-1.05789 0.57532,-2.29417 -0.24728,-0.64966 -0.15151,-0.91795 0.65109,-1.83219 l 0.94047,-1.07111 0.56246,0.77251 c 0.71534,0.98192 1.16595,0.97049 2.86113,-0.0729 0.79145,-0.4867 1.99007,-0.91452 2.82876,-1.00907 1.33012,-0.15009 1.61135,-0.33162 3.26686,-2.11564 l 1.81147,-1.95161 5.86842,0.42882 5.86842,0.42881 1.40959,-0.89401 c 1.92867,-1.22313 3.20668,-1.51172 6.42845,-1.45161 2.57118,0.05 2.9246,-0.0214 5.24771,-1.02809 2.83054,-1.22656 3.72977,-1.94247 4.41888,-3.51779 l 0.48385,-1.10535 2.47863,1.36014 c 1.8439,1.01186 2.44167,1.4852 2.33447,1.84848 -0.0793,0.26872 -0.38308,1.11221 -0.67538,1.87478 l -0.53174,1.38651 0.81297,1.06582 c 0.68896,0.9028 0.99078,1.06582 1.97605,1.06582 1.01029,0 1.26222,0.1458 1.91703,1.10935 0.41452,0.61035 0.75385,1.32726 0.75385,1.59355 0,0.26658 0.33162,1.52902 0.73693,2.8061 0.53387,1.68196 0.64965,2.42718 0.42024,2.70355 -0.4617,0.55674 -0.0572,1.00214 0.9108,1.00214 0.46455,0 2.06525,0.61106 3.55782,1.35856 l 2.7139,1.35856 -0.86742,1.09377 c -0.47742,0.60177 -1.14966,1.34856 -1.49464,1.65995 -0.3452,0.3116 -0.6275,0.65823 -0.6275,0.77037 0,0.1122 0.80424,0.44739 1.78723,0.74528 1.53681,0.46526 1.89208,0.48528 2.53509,0.14079 0.70684,-0.37807 0.82669,-0.32232 2.18675,1.01701 1.34019,1.32004 1.53145,1.41152 2.78909,1.33419 0.74264,-0.0429 1.53967,0.0743 1.77116,0.26658 0.78766,0.65395 1.96247,3.494 3.22762,7.80303 1.14015,3.88343 1.41102,4.48699 2.79696,6.23198 3.95211,4.97591 5.27565,6.90337 4.90001,7.1355 -0.20726,0.12793 -0.92675,0.31447 -1.59906,0.41381 -5.57582,0.82476 -10.24377,1.79838 -10.93152,2.27994 -0.43525,0.30518 -2.82033,1.04453 -5.29967,1.64359 l -4.50786,1.08919 0.20226,2.42996 c 0.19082,2.29516 0.15938,2.49335 -0.57104,3.56982 -0.42524,0.62679 -0.77344,1.25014 -0.77344,1.38508 0,0.13507 -0.27659,0.39308 -0.61464,0.57389 -0.9882,0.52888 -1.85934,-0.30303 -2.97391,-2.83883 -0.99807,-2.27115 -1.00236,-2.27566 -1.53016,-1.62386 -0.30946,0.38237 -0.52887,1.14516 -0.52887,1.83755 0,0.94919 -0.12293,1.21598 -0.61821,1.34563 -0.39666,0.10363 -0.56675,0.33376 -0.47527,0.64108 0.0786,0.26372 0.39094,1.39372 0.69254,2.51136 l 0.5496,2.03209 -0.65752,0.53316 c -0.36164,0.29302 -1.3963,0.62536 -2.29896,0.73828 -2.6395,0.32947 -2.44997,0.88172 0.23299,0.67896 l 2.27344,-0.17224 -1.70697,1.92981 c -1.65587,1.87193 -3.22734,2.9196 -5.46562,3.64387 -1.24978,0.40451 -1.43339,0.84905 -1.43925,3.48627 l -0.005,1.82361 1.61013,0.20083 1.61013,0.20155 -1.88064,3.1771 c -1.68453,2.84598 -1.83491,3.22827 -1.44247,3.66745 0.24085,0.26944 0.61821,1.17238 0.83798,2.00593 l 0.39951,1.51565 -1.57161,0.94003 c -1.37585,0.82297 -1.71219,1.22835 -2.70047,3.25543 -1.0666,2.18768 -1.18703,2.32026 -2.18303,2.40452 -0.91759,0.0779 -1.22019,0.32733 -2.33612,1.93024 -1.20054,1.7242 -1.37106,1.85263 -2.68353,2.02144 -0.77079,0.0993 -1.59598,0.28445 -1.83369,0.41166 -0.8389,0.44955 -2.42624,3.8189 -2.60212,5.52294 l -0.1701,1.64658 h -1.56968 c -1.81182,0 -1.66538,-0.29588 -2.20848,4.45876 -0.17724,1.5531 -0.38522,3.11785 -0.46169,3.47713 -0.13436,0.63108 0.13222,0.88551 2.95218,2.81682 0.18154,0.12436 0.0843,0.66252 -0.258,1.4211 l -0.55031,1.22077 1.14901,3.74921 1.14901,3.74914 -1.06482,0.92331 c -2.21291,1.91888 -2.39086,2.91223 -1.24228,6.9366 0.42739,1.4975 0.41667,1.61757 -0.29445,3.26973 -0.40595,0.94339 -0.80525,2.20161 -0.88694,2.79609 -0.0815,0.59463 -1.15037,2.86842 -2.37478,5.05324 l -2.2262,3.97234 -2.0729,-0.10363 c -2.35713,-0.11792 -3.33233,0.24728 -3.33233,1.24728 0,0.37236 0.40094,1.86199 0.89022,3.31039 0.48957,1.4484 0.85742,2.66324 0.8174,2.69969 -0.0429,0.0357 -1.69204,0.69396 -3.67117,1.46112 -3.36563,1.30474 -3.65187,1.47948 -4.42374,2.70054 -0.45383,0.71805 -1.52387,1.83304 -2.37785,2.47777 l -1.5526,1.17231 0.0929,2.62371 c 0.05,1.44304 0.0986,3.00479 0.10577,3.47048 0.007,0.55532 0.33376,1.1468 0.9454,1.7182 l 0.93281,0.87142 -0.5403,1.19754 c -0.61321,1.36028 -1.53838,2.09305 -3.25779,2.5809 -2.42088,0.68682 -8.27001,1.85463 -8.43975,1.68497 -0.0965,-0.0965 -0.52887,-1.0684 -0.96004,-2.15967 -0.77001,-1.94725 -0.80661,-1.98577 -1.96641,-2.07346 -1.0897,-0.0822 -1.20876,-0.17939 -1.5288,-1.24764 -0.34449,-1.1493 -2.14251,-2.97313 -2.93125,-2.97313 -0.65323,0 -1.40837,1.61056 -2.88893,6.16337 -1.24142,3.81761 -1.46369,4.29224 -1.70698,3.6458 -1.72484,-4.58147 -4.39815,-12.02343 -4.39815,-12.24342 0,-0.15437 0.33448,-0.71912 0.74314,-1.25493 0.91023,-1.19339 0.91574,-1.29824 0.0743,-1.41773 -0.59391,-0.0843 -0.72899,-0.41024 -1.20769,-2.91881 -0.2966,-1.55318 -0.59463,-3.09141 -0.66252,-3.41838 -0.0715,-0.32662 -0.42739,-0.95533 -0.79874,-1.39637 -0.60678,-0.72048 -0.8164,-0.78473 -2.06604,-0.6325 -1.1816,0.14365 -1.44461,0.29945 -1.74793,1.03123 -0.19654,0.47384 -0.4624,0.92695 -0.59105,1.00657 -0.12864,0.0793 -0.87042,-0.85956 -1.64801,-2.08712 -1.54309,-2.43596 -1.39587,-2.36914 -4.50443,-2.04424 -1.69439,0.17725 -1.8101,0.24014 -2.05939,1.11471 -0.22155,0.77716 -0.43024,0.94297 -1.29395,1.02566 -1.68982,0.16152 -1.90966,0.56103 -0.98027,1.7793 l 0.80417,1.05439 -0.75157,1.34619 c -0.41309,0.74043 -1.24943,1.74914 -1.85785,2.24164 -1.0596,0.85763 -1.22884,0.89565 -4.01507,0.90323 -1.9732,0.006 -3.06204,0.13508 -3.38529,0.40309 -0.69826,0.57961 -1.19233,2.33404 -1.01944,3.62271 0.13793,1.03144 0.0715,1.16859 -0.82705,1.65151 -0.82668,0.44525 -1.05803,0.82254 -1.49585,2.44011 -0.46812,1.72884 -0.62178,1.95654 -1.59084,2.35999 -0.59033,0.24585 -1.63993,0.96812 -2.33318,1.60563 -0.69326,0.6375 -1.7633,1.37443 -2.378,1.63758 -2.04996,0.87778 -2.01566,0.83654 -1.92017,2.3046 l 0.0893,1.37156 h -1.75971 -1.75972 z m 4.26937,1.25293 c -0.10578,-0.91588 0.83354,-1.8557 2.33504,-2.33569 0.58248,-0.18582 1.58562,-0.88586 2.22942,-1.55496 0.64394,-0.66895 1.71741,-1.45554 2.38586,-1.74778 1.11571,-0.48742 1.2575,-0.6811 1.72884,-2.36121 0.38522,-1.37314 0.69397,-1.91216 1.23692,-2.15951 0.59248,-0.27016 0.72463,-0.54889 0.72999,-1.54524 0.007,-1.53817 0.86771,-3.45154 1.92353,-4.28195 0.71919,-0.56603 1.137,-0.63321 3.53001,-0.57104 3.03988,0.0793 3.85099,-0.26729 4.83605,-2.06453 0.5353,-0.97684 0.44382,-1.44604 -0.55103,-2.83305 -0.30732,-0.42881 -0.2287,-0.65251 0.49957,-1.41195 0.55031,-0.57389 1.16023,-0.90251 1.67717,-0.90251 0.66538,0 0.84891,-0.16581 1.01279,-0.91181 0.24157,-1.09848 0.1751,-1.07568 3.75758,-1.29695 l 2.87021,-0.17725 0.95525,1.56461 c 1.19068,1.95011 1.16467,1.92403 1.45198,1.45919 0.19296,-0.31232 4.49971,-1.11235 4.62335,-0.85892 0.0214,0.0429 0.39594,0.63537 0.83612,1.3229 0.57247,0.89344 0.94247,2.10406 1.29753,4.24178 0.46598,2.80817 0.54388,3.00178 1.26765,3.15894 1.87928,0.40809 1.885,0.43811 0.44525,2.32412 l -1.06904,1.40015 1.69476,4.58762 c 0.93217,2.52315 1.73656,4.58762 1.78759,4.58762 0.05,0 0.58176,-1.46777 1.17967,-3.26179 0.83319,-2.50036 1.29524,-3.43703 1.97956,-4.01286 0.49099,-0.4131 1.02273,-0.75107 1.18182,-0.75107 1.05803,0 4.12392,2.763 4.12392,3.71647 0,0.28588 0.2916,0.44669 0.81747,0.44955 1.15423,0.007 1.33826,0.19511 2.38121,2.44496 0.58891,1.27023 1.07111,1.95448 1.3174,1.86943 0.21369,-0.0736 1.99364,-0.48814 3.95554,-0.92017 4.07926,-0.89887 4.94954,-1.27101 5.42796,-2.32097 0.30374,-0.66752 0.253,-0.81475 -0.45741,-1.33262 -0.79352,-0.57818 -0.80017,-0.6132 -0.91023,-4.86899 l -0.11078,-4.2868 1.5183,-1.09077 c 0.83504,-0.59963 1.98906,-1.74607 2.56453,-2.54709 0.96012,-1.33641 1.30882,-1.56068 4.23549,-2.7242 1.75407,-0.69754 3.22169,-1.2896 3.26143,-1.31618 0.0429,-0.0286 -0.25872,-1.17503 -0.66252,-2.55224 -0.89723,-3.05782 -0.90366,-3.2653 -0.13079,-4.24736 0.57176,-0.7267 0.78366,-0.78323 2.93789,-0.78323 h 2.32176 l 1.98899,-3.49264 c 1.3111,-2.30231 2.09191,-4.04666 2.29109,-5.11813 0.16581,-0.89401 0.56175,-2.13443 0.87908,-2.7565 0.49313,-0.96655 0.52887,-1.30861 0.24799,-2.35184 -0.54674,-2.03095 -0.83376,-4.22056 -0.66752,-5.09191 0.0865,-0.45312 0.73799,-1.46927 1.44747,-2.25843 l 1.29002,-1.43482 -1.05074,-3.38736 c -0.93668,-3.01965 -1.01179,-3.49828 -0.69254,-4.40923 0.38665,-1.10328 0.34234,-1.17189 -1.84827,-2.84241 l -0.77959,-0.59463 0.63608,-4.90458 0.63608,-4.90466 0.89179,-0.0815 c 2.0551,-0.18797 2.16903,-0.2773 2.52066,-1.97063 0.33662,-1.62264 2.25607,-5.17438 3.01343,-5.57675 0.22584,-0.12007 1.04753,-0.30017 1.82568,-0.40023 1.31833,-0.1701 1.50015,-0.30303 2.66417,-1.95368 1.04331,-1.47949 1.4276,-1.79996 2.33154,-1.94454 1.00408,-0.16081 1.14809,-0.3209 1.99078,-2.21748 0.76086,-1.71241 1.13115,-2.17803 2.28045,-2.86714 1.23877,-0.74278 1.35634,-0.90823 1.21054,-1.70369 -0.0886,-0.48456 -0.48456,-1.22026 -0.87928,-1.63486 l -0.71777,-0.75393 1.60141,-2.67524 c 0.88079,-1.47134 1.60749,-2.76379 1.61478,-2.87199 0.007,-0.10792 -0.52172,-0.28731 -1.1756,-0.39737 -1.14079,-0.19297 -1.18896,-0.24586 -1.18896,-1.3189 0,-0.61464 0.0851,-2.12571 0.18939,-3.35734 l 0.1894,-2.23935 1.22262,-0.36235 c 2.14766,-0.6368 4.27008,-1.77973 4.79574,-2.58198 l 0.51029,-0.77851 -2.73142,0.1558 -2.73148,0.1558 0.83848,-0.89322 c 1.02865,-1.09584 3.49313,-2.29745 4.72019,-2.30138 0.50028,-0.001 1.15487,-0.18225 1.45504,-0.40238 0.52745,-0.38593 0.52459,-0.46955 -0.0972,-2.51693 -0.35378,-1.16481 -0.71255,-2.29903 -0.79775,-2.52044 -0.0908,-0.23585 0.15795,-0.54531 0.60035,-0.74643 0.52887,-0.24085 0.75457,-0.57747 0.75457,-1.12278 0,-0.72885 1.9494,-4.28945 2.34598,-4.28495 0.0993,0.001 0.62321,1.1047 1.16338,2.45233 0.91888,2.29109 1.97491,4.11271 2.19339,3.78337 0.05,-0.0793 0.41524,-0.59891 0.80532,-1.15487 0.66467,-0.94668 0.69826,-1.18653 0.52745,-3.78988 -0.10006,-1.52858 -0.10292,-2.77922 -0.007,-2.77922 1.03459,0 9.36327,-2.23878 9.97076,-2.68018 0.54388,-0.39522 2.42124,-0.86792 5.86427,-1.47705 2.78559,-0.49314 5.20133,-0.89602 5.36835,-0.89602 0.6418,0 0.22227,-0.73742 -2.17152,-3.81503 -3.34498,-4.30124 -3.27973,-4.17874 -4.38022,-8.22355 -1.06618,-3.91838 -1.75264,-5.71583 -2.68095,-7.01951 -0.52602,-0.73835 -0.80618,-0.85763 -2.0163,-0.85763 -1.24821,0 -1.53573,-0.13293 -2.56632,-1.18853 -0.77251,-0.79117 -1.25979,-1.08934 -1.45733,-0.89173 -0.16367,0.16295 -0.56318,0.2966 -0.88851,0.2966 -0.49671,0 -5.42581,-1.44125 -5.80195,-1.69654 -0.0643,-0.0429 0.63536,-0.87621 1.56053,-1.8462 0.92524,-0.96998 1.68225,-1.83819 1.68225,-1.92931 0,-0.33448 -3.00379,-1.67496 -4.4489,-1.98485 -0.81911,-0.17581 -1.76915,-0.54602 -2.11128,-0.82311 -0.54745,-0.44311 -0.57818,-0.59963 -0.25657,-1.30617 0.30803,-0.6761 0.25729,-1.20562 -0.32304,-3.36542 -0.83598,-3.11092 -1.25708,-3.68111 -2.87922,-3.89866 -1.07983,-0.14508 -1.38164,-0.36378 -2.28737,-1.65737 -1.03552,-1.4792 -1.03988,-1.49864 -0.57176,-2.56397 0.77852,-1.77229 0.67682,-2.16316 -0.77408,-2.97055 l -1.31647,-0.7327 -0.46598,0.72034 c -0.83462,1.28966 -1.97555,2.09848 -4.62335,3.27744 -2.50865,1.11692 -2.71891,1.15859 -5.84669,1.15859 -3.48542,0 -4.52687,0.27015 -6.07261,1.57333 l -0.91503,0.77165 -3.98956,-0.27158 c -2.19425,-0.14937 -4.90959,-0.33591 -6.03408,-0.41524 l -2.04453,-0.14365 -1.74957,1.87821 c -1.52894,1.64129 -1.92159,1.90173 -3.11263,2.06504 -0.74957,0.10291 -2.36564,0.68253 -3.59112,1.28802 l -2.2282,1.1012 -0.54746,-0.72606 c -0.47098,-0.62393 -0.57461,-0.6568 -0.7362,-0.23513 -0.10363,0.27015 -0.05,0.99242 0.11935,1.60498 0.16938,0.6125 0.24585,1.21405 0.1701,1.33648 -0.0758,0.12221 -0.74772,0.58033 -1.49343,1.01722 -1.35384,0.79346 -1.35777,0.79381 -2.76543,0.28731 -1.30718,-0.47027 -1.47763,-0.4717 -2.34491,-0.0214 -1.96269,1.01501 -5.48306,0.16152 -7.20704,-1.7465 -0.40881,-0.4524 -1.41188,-1.1265 -2.22935,-1.49785 -1.50486,-0.68396 -3.20754,-2.27937 -4.74442,-4.44633 -0.46383,-0.65394 -1.44118,-1.81167 -2.17195,-2.57275 l -1.32869,-1.38372 0.53531,-1.40244 c 0.53173,-1.3928 0.53101,-1.41138 -0.15438,-2.70347 l -0.69039,-1.30096 h -2.9281 -2.92817 l -2.07204,-1.32819 c -1.13965,-0.73048 -2.12672,-1.23206 -2.1934,-1.1147 -0.0643,0.11721 -0.27873,0.70326 -0.47169,1.30103 l -0.3502,1.0874 -2.24135,-0.0979 c -1.23278,-0.0572 -2.30446,-0.16081 -2.38158,-0.23799 -0.29803,-0.29732 0.9995,-2.19776 2.34741,-3.43861 l 1.41195,-1.29974 v -2.24671 c 0,-1.77051 -0.11721,-2.37672 -0.55174,-2.86028 -0.49385,-0.54888 -0.52673,-0.89622 -0.31089,-3.28895 0.13293,-1.47134 0.39737,-3.51722 0.58819,-4.54638 0.19082,-1.02915 0.29231,-1.92552 0.22584,-1.99199 -0.0643,-0.0643 -2.69854,-0.38522 -5.84905,-0.70898 -5.1405,-0.52744 -5.87778,-0.54388 -7.18603,-0.15508 l -1.45783,0.4331 -2.46419,-1.31396 -2.46427,-1.31404 -4.93588,-0.19868 -4.93596,-0.19869 -2.45698,-1.2793 c -2.12235,-1.10527 -2.6032,-1.24843 -3.53523,-1.05246 -0.5932,0.12436 -2.58762,0.2916 -4.43189,0.37093 l -3.35312,0.14437 -1.62579,-1.6651 c -0.89415,-0.91588 -1.63293,-1.5353 -1.64172,-1.37664 -0.007,0.15866 -0.003,1.89365 0.0143,3.85549 l 0.0286,3.56696 -2.07583,3.12114 c -2.30052,3.45904 -3.6077,5.05324 -4.14329,5.05324 -0.19511,0 -1.18818,0.60677 -2.20697,1.34791 l -1.85242,1.34784 -0.78659,-0.96376 -0.78659,-0.96377 -2.03802,1.73049 c -1.12093,0.95176 -2.37243,2.21827 -2.78109,2.81454 -2.04259,2.97948 -2.13851,3.07997 -2.54252,2.66352 -0.51815,-0.53388 -4.43725,-8.43232 -4.88007,-9.83462 -0.19368,-0.6132 -0.44812,-1.11463 -0.56533,-1.11463 -0.1172,0 -0.84927,1.62199 -1.62671,3.60441 -1.21298,3.09269 -1.45411,4.06568 -1.69883,6.85413 -0.29302,3.33962 -0.81953,4.91459 -1.99949,5.98162 -0.57533,0.5203 -0.65252,0.51315 -2.40052,-0.22298 l -1.80631,-0.76029 -3.27716,0.91488 c -3.05782,0.85363 -3.41531,0.89337 -5.34219,0.59462 -3.54502,-0.55031 -4.26165,-0.45454 -5.71298,0.76222 -3.15072,2.64123 -6.24656,4.59355 -11.24927,7.09405 -1.5531,0.7763 -3.55953,2.03888 -4.45876,2.80575 -1.31561,1.12199 -2.6285,1.78795 -6.72341,3.41023 l -5.08862,2.01601 -2.34262,-0.6225 c -5.67009,-1.50679 -9.82404,-2.63272 -10.44267,-2.83055 -0.58605,-0.18725 -0.66896,-0.11006 -0.66967,0.62322 -8.6e-4,0.66252 -0.36593,1.13214 -1.74814,2.24942 -0.96091,0.77652 -1.86428,1.41195 -2.00751,1.41195 -0.14293,0 -1.53015,-1.00293 -3.08211,-2.2287 -1.87364,-1.47984 -3.36049,-2.40151 -4.42538,-2.74313 -1.43618,-0.46098 -1.73121,-0.70898 -2.8239,-2.3725 -1.21126,-1.84448 -1.23042,-1.85806 -2.63207,-1.86421 l -1.41195,-0.006 0.002,1.56061 c 0.001,1.02165 0.19369,1.85098 0.55675,2.40173 0.48528,0.73642 0.54031,1.30996 0.44025,4.60734 -0.10363,3.40973 -0.1701,3.79159 -0.7054,4.03452 -0.71327,0.32375 -0.71763,0.39594 -0.1165,1.83447 0.35092,0.83998 0.42382,1.60463 0.28088,2.94154 -0.18153,1.69132 -0.14366,1.85334 0.59462,2.54252 1.76437,1.64844 2.90723,4.4023 4.29031,10.33833 0.46884,2.01143 1.06596,3.98341 1.32718,4.38214 1.21084,1.84799 0.69183,5.5466 -0.8031,5.72584 -0.66895,0.08 -0.90294,0.44669 -1.85691,2.90866 -1.00286,2.58826 -1.06661,2.9306 -0.78531,4.21834 0.16867,0.77079 0.38951,3.37785 0.491,5.79345 0.17795,4.23163 0.2237,4.47269 1.23384,6.60048 0.67181,1.4148 1.05575,2.67024 1.06818,3.49371 0.0286,1.82561 -1.09355,4.94925 -2.46262,6.8612 -0.64393,0.89901 -1.54909,2.61771 -2.01179,3.81925 l -0.84119,2.1846 0.7728,1.8998 c 0.71969,1.76944 0.86035,1.92574 2.04781,2.27637 0.70111,0.20726 2.25043,1.1235 3.44246,2.03659 l 2.16731,1.66002 h 2.87643 2.87635 l 2.66381,1.79117 c 1.46512,0.98513 2.66388,1.88979 2.66388,2.01043 0,0.12078 -0.68968,0.38307 -1.53216,0.58319 -0.8427,0.20011 -1.61178,0.44382 -1.70919,0.54102 -0.28374,0.28373 -0.40738,5.06246 -0.18511,7.14086 l 0.20369,1.90423 1.23964,10e-4 c 1.64086,0.002 3.77972,1.3875 4.23348,2.74299 0.46384,1.38493 1.76358,1.51944 2.80053,0.29016 0.50172,-0.59462 1.13472,-0.94811 1.93789,-1.08125 1.12979,-0.18725 1.21091,-0.14938 1.53666,0.71326 0.2237,0.59319 0.70183,1.0606 1.36964,1.33969 0.5639,0.23585 1.41288,0.91124 1.88615,1.50122 0.80403,1.00221 1.01522,1.09183 3.21677,1.36513 2.74013,0.3402 2.79166,0.38808 4.24821,3.95497 0.53101,1.30067 1.13307,2.47113 1.33762,2.60099 0.51458,0.32661 2.00671,0.30589 2.00671,-0.0286 0,-0.15009 0.45026,-0.55174 1.00115,-0.89179 1.29288,-0.79903 2.95683,-0.7901 5.09262,0.0286 1.52351,0.58319 2.03694,1.04553 5.27308,4.75014 1.97191,2.25736 3.79916,4.16381 4.0606,4.23649 0.26158,0.0729 0.94361,0.22442 1.51579,0.33734 1.39809,0.27587 1.52509,0.40237 3.37572,3.36206 1.43632,2.29724 1.62878,2.80003 1.80903,4.72527 l 0.20154,2.15451 -1.0293,0.60749 c -1.23592,0.72913 -2.70526,3.54117 -2.47048,4.72791 0.11435,0.57676 -0.3209,1.50158 -1.80818,3.84227 l -1.9584,3.08276 0.48885,0.9301 c 0.38665,0.73449 0.42882,1.1801 0.20369,2.11907 -0.38665,1.61277 -0.37021,4.06181 0.0357,5.68403 0.25158,0.99957 0.25158,1.42559 0,1.67731 -0.52101,0.52101 -0.40237,0.81289 0.33162,0.81425 0.76608,0.001 5.30053,-2.97891 6.12285,-4.0243 0.3452,-0.43882 0.69468,-1.72191 0.9439,-3.46447 l 0.39594,-2.76758 1.58212,-1.52223 c 0.87021,-0.83712 1.58218,-1.74421 1.58218,-2.01572 0,-0.27158 0.27588,-1.31325 0.61393,-2.31518 0.96719,-2.87107 3.84197,-6.25443 7.03472,-8.27915 0.74343,-0.4717 1.5987,-1.26337 1.90052,-1.75972 0.43024,-0.70683 0.75907,-0.90323 1.51929,-0.90602 0.53388,-0.002 1.70612,-0.20083 2.60528,-0.44239 0.89915,-0.24157 1.74999,-0.44025 1.89079,-0.4424 0.14079,-0.002 0.20726,1.43439 0.14866,3.19189 l -0.10721,3.1954 1.34606,-0.0822 c 1.22484,-0.075 1.49256,0.0429 2.97248,1.30596 0.89458,0.76351 1.80296,1.80374 2.01879,2.3116 0.55961,1.31776 3.02602,7.8006 3.02602,7.95447 0,0.0715 -0.80261,0.95405 -1.78352,1.96277 -2.04374,2.10162 -2.21713,2.8597 -0.96605,4.22433 0.55817,0.60892 1.21333,0.95155 2.06582,1.08069 l 1.24828,0.1894 0.20155,-1.5208 c 0.19439,-1.46326 0.29159,-1.59434 2.58533,-3.46798 2.66595,-2.17781 2.82011,-2.20204 5.71447,-0.8983 1.78145,0.80246 3.17024,2.1523 4.35785,4.23542 0.65323,1.14573 1.10055,1.58955 1.74506,1.73113 0.5153,0.11292 1.42217,0.80818 2.23735,1.71476 1.2029,1.33791 1.34491,1.63537 1.16074,2.43046 -0.31232,1.34699 -0.28374,1.59999 0.44739,4.02702 0.74507,2.47248 0.8432,3.32861 0.51887,4.52515 -0.1994,0.73385 -0.10363,0.86885 1.02409,1.44397 0.98291,0.50171 1.61606,0.60749 3.01993,0.506 l 1.77623,-0.12865 2.2064,3.38394 c 1.99243,3.05581 2.28366,3.37499 3.00308,3.29187 0.65894,-0.0758 0.78158,-0.22227 0.70969,-0.84555 z M 461.08378,182.7999 c 0.20869,-0.72399 0.33519,-1.36099 0.28016,-1.41553 -0.16367,-0.16366 -2.86628,2.3129 -2.86628,2.6265 0,0.15938 0.49671,0.24872 1.10334,0.19797 1.02509,-0.0858 1.13022,-0.18582 1.48271,-1.40866 z"
               id="path6406" />
          </g>
        </g>
      </g>
    </g>
  </g>
</svg>
